<svg width="256" height="256" viewBox="0 0 256 256" fill="none" xmlns="http://www.w3.org/2000/svg">
<g clip-path="url(#clip0_6_24)">
<path fill-rule="evenodd" clip-rule="evenodd" d="M128 256C102.684 256 77.9366 248.493 56.8871 234.428C35.8376 220.363 19.4316 200.372 9.74361 176.984C0.0555929 153.595 -2.47941 127.858 2.4595 103.028C7.3984 78.1989 19.5894 55.3915 37.4905 37.4904C55.3916 19.5893 78.1989 7.39847 103.029 2.45956C127.858 -2.47935 153.595 0.0554006 176.984 9.74342C200.373 19.4314 220.363 35.8375 234.428 56.887C248.493 77.9365 256 102.684 256 128C256 161.948 242.514 194.505 218.51 218.51C194.505 242.514 161.948 256 128 256ZM55.5264 156.864C52.7739 154.081 51.2301 150.325 51.2301 146.411C51.2301 142.497 52.7739 138.74 55.5264 135.957L63.0616 128.465C64.343 127.172 65.8709 126.15 67.5551 125.459C69.2392 124.768 71.0452 124.422 72.8655 124.442C74.6858 124.463 76.4834 124.848 78.1517 125.577C79.82 126.305 81.325 127.361 82.5772 128.683L95.8892 142.494C96.5239 143.164 97.2884 143.697 98.1361 144.062C98.9837 144.426 99.8967 144.614 100.819 144.614C101.742 144.614 102.655 144.426 103.503 144.062C104.35 143.697 105.115 143.164 105.749 142.494L173.589 72.5632C174.851 71.2326 176.368 70.1709 178.05 69.4417C179.733 68.7126 181.545 68.3313 183.378 68.3205C185.212 68.3097 187.028 68.6698 188.719 69.3791C190.41 70.0884 191.939 71.1324 193.216 72.4481L200.533 79.8464C203.219 82.6179 204.72 86.3255 204.72 90.1846C204.72 94.0436 203.219 97.7513 200.533 100.523L110.468 192.047C109.211 193.348 107.708 194.385 106.045 195.097C104.382 195.809 102.593 196.182 100.784 196.194C98.9753 196.206 97.1822 195.857 95.51 195.167C93.8379 194.476 92.3204 193.459 91.0465 192.175L55.5264 156.864Z" fill="#699F4C"/>
</g>
<defs>
<clipPath id="clip0_6_24">
<rect width="256" height="256" fill="white"/>
</clipPath>
</defs>
</svg>
