<svg width="256" height="256" viewBox="0 0 256 256" fill="none" xmlns="http://www.w3.org/2000/svg">
<g clip-path="url(#clip0_32_322)">
<path d="M192 0H64C28.6538 0 0 28.6538 0 64V192C0 227.346 28.6538 256 64 256H192C227.346 256 256 227.346 256 192V64C256 28.6538 227.346 0 192 0Z" fill="#7ED0EC"/>
<path d="M202.963 45.2173H53.0371V234.667H202.963V45.2173Z" fill="#ECE7EA"/>
<path d="M163.062 34.3014H140.968C140.968 27.1402 135.162 21.3335 128 21.3335C120.838 21.3335 115.031 27.1402 115.031 34.3014H92.9375C89.4892 34.3014 86.6934 37.0968 86.6934 40.5456V56.1377H169.305V40.5452C169.305 37.0972 166.51 34.3014 163.062 34.3014Z" fill="#8B7E7F"/>
<path d="M103.76 195.546H86.6934V212.613H103.76V195.546Z" fill="white"/>
<path d="M169.305 207.636H117.983C116.018 207.636 114.427 206.045 114.427 204.081C114.427 202.117 116.019 200.525 117.983 200.525H169.306C171.27 200.525 172.861 202.117 172.861 204.081C172.861 206.045 171.269 207.636 169.305 207.636Z" fill="#C2B8B9"/>
<path d="M103.76 156.431H86.6934V173.497H103.76V156.431Z" fill="white"/>
<path d="M169.305 168.517H117.983C116.018 168.517 114.427 166.925 114.427 164.962C114.427 162.998 116.019 161.406 117.983 161.406H169.306C171.27 161.406 172.861 162.998 172.861 164.962C172.861 166.926 171.269 168.517 169.305 168.517Z" fill="#C2B8B9"/>
<path d="M103.76 117.31H86.6934V134.376H103.76V117.31Z" fill="white"/>
<path d="M169.305 129.398H117.983C116.018 129.398 114.427 127.806 114.427 125.843C114.427 123.879 116.019 122.287 117.983 122.287H169.306C171.27 122.287 172.861 123.879 172.861 125.843C172.861 127.806 171.269 129.398 169.305 129.398Z" fill="#C2B8B9"/>
<path d="M103.76 78.1895H86.6934V95.2561H103.76V78.1895Z" fill="white"/>
<path d="M169.305 90.2788H117.983C116.018 90.2788 114.427 88.6871 114.427 86.7234C114.427 84.7596 116.019 83.168 117.983 83.168H169.306C171.27 83.168 172.861 84.7596 172.861 86.7234C172.861 88.6871 171.269 90.2788 169.305 90.2788Z" fill="#C2B8B9"/>
</g>
<defs>
<clipPath id="clip0_32_322">
<rect width="256" height="256" fill="white"/>
</clipPath>
</defs>
</svg>
