<svg width="256" height="256" viewBox="0 0 256 256" fill="none" xmlns="http://www.w3.org/2000/svg">
<path d="M216.001 0H40.0059C26.4027 0 16.0066 10.3997 16.0066 24.0029V231.994C16.0066 245.6 26.4027 256 40.0059 256H216.001C229.604 256 239.997 245.6 239.997 231.994V23.9993C239.993 10.3997 229.601 0 216.001 0ZM224.001 231.99C224.001 236.797 220.801 239.99 216.005 239.99H40.0059C35.2061 239.99 32.0097 236.79 32.0097 231.99V23.9993C32.0097 19.1959 35.2096 15.9996 40.0059 15.9996H216.001C220.801 15.9996 223.997 19.1995 223.997 23.9993L224.001 231.99Z" fill="black"/>
<path d="M196.798 134.4L198.398 131.2C199.994 128.8 199.198 126.4 196.798 125.6C195.205 124.797 191.995 125.6 191.202 127.197L189.605 130.396C184.805 128.8 181.609 127.996 180.809 129.593L144.803 191.995L165.595 203.991L201.591 141.596C203.201 140.796 200.801 137.593 196.798 134.4Z" fill="black"/>
<path d="M203.994 143.996L186.391 175.195L189.591 176.792L207.194 145.592C207.998 144.796 207.194 143.193 206.394 142.393C206.401 142.393 204.801 142.393 203.994 143.996Z" fill="black"/>
<path d="M145.603 215.994C145.603 215.994 152.806 212.794 159.21 208.794L145.603 200.794C144.803 207.994 145.603 215.994 145.603 215.994Z" fill="black"/>
<path d="M208.005 60.7983H48.0056V76.7979H208.005V60.7983Z" fill="black"/>
<path d="M148.806 92.801H48.0056V108.797H148.806V92.801Z" fill="black"/>
<path d="M148.806 124.797H48.0056V140.796H148.806V124.797Z" fill="black"/>
<path d="M98.4006 156.799H48.0056V172.795H98.4006V156.799Z" fill="black"/>
</svg>
