<svg width="256" height="256" viewBox="0 0 256 256" fill="none" xmlns="http://www.w3.org/2000/svg">
<path d="M187.177 141.389C181.318 141.391 175.515 142.524 170.086 144.727V35.84C170.086 32.4453 168.738 29.1895 166.337 26.7891C163.937 24.3886 160.681 23.04 157.286 23.04H35.84C32.4453 23.04 29.1895 24.3886 26.7891 26.7891C24.3886 29.1895 23.04 32.4453 23.04 35.84V220.16C23.04 223.555 24.3886 226.811 26.7891 229.211C29.1895 231.611 32.4453 232.96 35.84 232.96H157.286C159.166 232.945 161.02 232.516 162.716 231.704C164.411 230.892 165.907 229.716 167.096 228.26C173.284 231.286 180.074 232.877 186.962 232.913C193.85 232.95 200.657 231.431 206.876 228.47C213.095 225.509 218.565 221.182 222.879 215.813C227.193 210.443 230.239 204.169 231.791 197.458C233.342 190.747 233.358 183.772 231.838 177.054C230.319 170.336 227.302 164.048 223.013 158.658C218.725 153.268 213.275 148.916 207.07 145.926C200.865 142.936 194.065 141.385 187.177 141.389Z" fill="#231F20"/>
<path d="M157.287 227.84H35.8402C33.8033 227.84 31.8499 227.031 30.4096 225.591C28.9693 224.15 28.1602 222.197 28.1602 220.16V35.8402C28.1602 33.8033 28.9693 31.8499 30.4096 30.4096C31.8499 28.9693 33.8033 28.1602 35.8402 28.1602H157.287C159.323 28.1602 161.277 28.9693 162.717 30.4096C164.157 31.8499 164.967 33.8033 164.967 35.8402V147.164C162.209 148.709 159.618 150.535 157.235 152.612V42.7214C157.235 40.6846 156.426 38.7311 154.986 37.2909C153.546 35.8506 151.592 35.0414 149.555 35.0414H43.5714C41.5345 35.0414 39.5811 35.8506 38.1408 37.2909C36.7005 38.7311 35.8914 40.6846 35.8914 42.7214V201.539C35.8914 203.576 36.7005 205.529 38.1408 206.969C39.5811 208.41 41.5345 209.219 43.5714 209.219H147.067C150.776 215.916 156.096 221.584 162.545 225.71C161.128 227.065 159.247 227.827 157.287 227.84Z" fill="white"/>
<path d="M152.202 157.696C146.837 164.012 143.3 171.673 141.972 179.853C140.643 188.033 141.575 196.42 144.666 204.109H43.5712C42.8923 204.109 42.2411 203.839 41.761 203.359C41.2809 202.879 41.0112 202.228 41.0112 201.549V42.7214C41.0112 42.0424 41.2809 41.3913 41.761 40.9112C42.2411 40.4311 42.8923 40.1614 43.5712 40.1614H149.555C150.234 40.1614 150.885 40.4311 151.365 40.9112C151.846 41.3913 152.115 42.0424 152.115 42.7214V157.251C152.131 157.401 152.16 157.551 152.202 157.696Z" fill="#FFBA50"/>
<path d="M67.0718 54.2158C63.4494 54.2148 59.908 55.2881 56.8956 57.2998C53.8831 59.3116 51.535 62.1716 50.148 65.518C48.7611 68.8644 48.3976 72.5469 49.1037 76.0999C49.8098 79.6528 51.5537 82.9166 54.1148 85.4784C56.6758 88.0402 59.9391 89.785 63.4919 90.492C67.0446 91.1991 70.7273 90.8367 74.0741 89.4507C77.4208 88.0647 80.2814 85.7173 82.2941 82.7054C84.3067 79.6936 85.3809 76.1525 85.3809 72.5301C85.3742 67.6758 83.4432 63.0222 80.0111 59.5892C76.5791 56.1563 71.9261 54.2239 67.0718 54.2158Z" fill="#231F20"/>
<path d="M67.0719 85.7191C64.4619 85.7201 61.9102 84.947 59.7397 83.4976C57.5691 82.0481 55.8772 79.9875 54.8779 77.5764C53.8786 75.1653 53.6169 72.5119 54.1258 69.952C54.6348 67.3921 55.8915 65.0406 57.7371 63.1951C59.5826 61.3495 61.9341 60.0928 64.494 59.5838C67.0539 59.0749 69.7072 59.3366 72.1184 60.3359C74.5295 61.3352 76.5901 63.0271 78.0395 65.1977C79.489 67.3682 80.2621 69.9199 80.261 72.5299C80.2556 76.0262 78.8643 79.3778 76.3921 81.8501C73.9198 84.3223 70.5682 85.7136 67.0719 85.7191Z" fill="white"/>
<path d="M67.0669 140.442C77.1788 140.442 85.376 132.244 85.376 122.133C85.376 112.021 77.1788 103.823 67.0669 103.823C56.9551 103.823 48.7578 112.021 48.7578 122.133C48.7578 132.244 56.9551 140.442 67.0669 140.442Z" fill="#231F20"/>
<path d="M67.0671 135.322C74.3512 135.322 80.2562 129.417 80.2562 122.132C80.2562 114.848 74.3512 108.943 67.0671 108.943C59.7829 108.943 53.8779 114.848 53.8779 122.132C53.8779 129.417 59.7829 135.322 67.0671 135.322Z" fill="white"/>
<path d="M67.0718 153.421C63.4494 153.42 59.908 154.493 56.8956 156.505C53.8831 158.517 51.535 161.377 50.148 164.723C48.7611 168.069 48.3976 171.752 49.1037 175.305C49.8098 178.858 51.5537 182.122 54.1148 184.683C56.6758 187.245 59.9391 188.99 63.4919 189.697C67.0446 190.404 70.7273 190.042 74.0741 188.656C77.4208 187.27 80.2814 184.922 82.2941 181.911C84.3067 178.899 85.3809 175.358 85.3809 171.735C85.3755 166.88 83.4449 162.226 80.0126 158.793C76.5803 155.36 71.9265 153.428 67.0718 153.421Z" fill="#231F20"/>
<path d="M67.0719 184.924C64.4619 184.925 61.9102 184.152 59.7397 182.703C57.5691 181.253 55.8772 179.193 54.8779 176.781C53.8786 174.37 53.6169 171.717 54.1258 169.157C54.6348 166.597 55.8915 164.246 57.7371 162.4C59.5826 160.555 61.9341 159.298 64.494 158.789C67.0539 158.28 69.7072 158.542 72.1184 159.541C74.5295 160.54 76.5901 162.232 78.0395 164.403C79.489 166.573 80.2621 169.125 80.261 171.735C80.2556 175.231 78.8643 178.583 76.3921 181.055C73.9198 183.527 70.5682 184.919 67.0719 184.924Z" fill="white"/>
<path d="M103.424 214.764H89.7128C89.0339 214.764 88.3827 215.033 87.9026 215.513C87.4226 215.994 87.1528 216.645 87.1528 217.324C87.1528 218.003 87.4226 218.654 87.9026 219.134C88.3827 219.614 89.0339 219.884 89.7128 219.884H103.424C104.103 219.884 104.754 219.614 105.234 219.134C105.714 218.654 105.984 218.003 105.984 217.324C105.984 216.645 105.714 215.994 105.234 215.513C104.754 215.033 104.103 214.764 103.424 214.764Z" fill="#231F20"/>
<path d="M187.177 227.84C179.134 227.841 171.27 225.457 164.582 220.989C157.893 216.521 152.68 210.169 149.601 202.738C146.522 195.307 145.716 187.13 147.285 179.241C148.853 171.352 152.726 164.105 158.414 158.417C164.101 152.729 171.347 148.855 179.236 147.285C187.125 145.716 195.303 146.521 202.734 149.599C210.165 152.677 216.517 157.889 220.986 164.577C225.455 171.265 227.84 179.128 227.84 187.172C227.827 197.953 223.538 208.288 215.916 215.912C208.293 223.535 197.958 227.825 187.177 227.84Z" fill="#7CC05B"/>
<path d="M141.824 69.97H94.8481C94.1691 69.97 93.518 70.2397 93.0379 70.7198C92.5578 71.1999 92.2881 71.851 92.2881 72.53C92.2881 73.2089 92.5578 73.8601 93.0379 74.3402C93.518 74.8203 94.1691 75.09 94.8481 75.09H141.824C142.503 75.09 143.154 74.8203 143.634 74.3402C144.114 73.8601 144.384 73.2089 144.384 72.53C144.384 71.851 144.114 71.1999 143.634 70.7198C143.154 70.2397 142.503 69.97 141.824 69.97Z" fill="#231F20"/>
<path d="M72.1052 66.4782L66.2223 72.3611L63.9541 70.0929C63.718 69.8484 63.4355 69.6534 63.1231 69.5192C62.8108 69.385 62.4749 69.3144 62.135 69.3115C61.7951 69.3085 61.458 69.3733 61.1434 69.502C60.8287 69.6307 60.5429 69.8208 60.3025 70.0612C60.0622 70.3015 59.8721 70.5874 59.7434 70.902C59.6147 71.2166 59.5499 71.5537 59.5528 71.8936C59.5558 72.2335 59.6264 72.5695 59.7606 72.8818C59.8947 73.1941 60.0898 73.4766 60.3343 73.7127L64.4303 77.8087C64.9103 78.2887 65.5614 78.5583 66.2402 78.5583C66.919 78.5583 67.57 78.2887 68.0501 77.8087L75.7301 70.1287C76.1964 69.6459 76.4545 68.9993 76.4486 68.328C76.4428 67.6568 76.1736 67.0147 75.6989 66.5401C75.2243 66.0654 74.5822 65.7962 73.911 65.7904C73.2398 65.7845 72.5931 66.0426 72.1103 66.5089L72.1052 66.4782Z" fill="#231F20"/>
<path d="M141.824 119.573H94.8481C94.1691 119.573 93.518 119.842 93.0379 120.322C92.5578 120.802 92.2881 121.454 92.2881 122.133C92.2881 122.811 92.5578 123.463 93.0379 123.943C93.518 124.423 94.1691 124.693 94.8481 124.693H141.824C142.503 124.693 143.154 124.423 143.634 123.943C144.114 123.463 144.384 122.811 144.384 122.133C144.384 121.454 144.114 120.802 143.634 120.322C143.154 119.842 142.503 119.573 141.824 119.573Z" fill="#231F20"/>
<path d="M72.1052 116.081L66.2223 121.964L63.9541 119.695C63.718 119.451 63.4355 119.256 63.1231 119.122C62.8108 118.988 62.4749 118.917 62.135 118.914C61.7951 118.911 61.458 118.976 61.1434 119.105C60.8287 119.233 60.5429 119.423 60.3025 119.664C60.0622 119.904 59.8721 120.19 59.7434 120.505C59.6147 120.819 59.5499 121.156 59.5528 121.496C59.5558 121.836 59.6264 122.172 59.7606 122.484C59.8947 122.797 60.0898 123.079 60.3343 123.315L64.4303 127.411C64.9103 127.891 65.5614 128.161 66.2402 128.161C66.919 128.161 67.57 127.891 68.0501 127.411L75.7301 119.731C76.1964 119.248 76.4545 118.602 76.4486 117.931C76.4428 117.259 76.1736 116.617 75.6989 116.143C75.2243 115.668 74.5822 115.399 73.911 115.393C73.2398 115.387 72.5931 115.645 72.1103 116.111L72.1052 116.081Z" fill="#231F20"/>
<path d="M128 169.175H94.8481C94.1691 169.175 93.518 169.445 93.0379 169.925C92.5578 170.405 92.2881 171.056 92.2881 171.735C92.2881 172.414 92.5578 173.065 93.0379 173.545C93.518 174.025 94.1691 174.295 94.8481 174.295H128C128.679 174.295 129.33 174.025 129.81 173.545C130.29 173.065 130.56 172.414 130.56 171.735C130.56 171.056 130.29 170.405 129.81 169.925C129.33 169.445 128.679 169.175 128 169.175Z" fill="#231F20"/>
<path d="M72.1052 165.683L66.2223 171.566L63.9541 169.298C63.718 169.053 63.4355 168.858 63.1231 168.724C62.8108 168.59 62.4749 168.519 62.135 168.516C61.7951 168.514 61.458 168.578 61.1434 168.707C60.8287 168.836 60.5429 169.026 60.3025 169.266C60.0622 169.507 59.8721 169.792 59.7434 170.107C59.6147 170.422 59.5499 170.759 59.5528 171.099C59.5558 171.439 59.6264 171.774 59.7606 172.087C59.8947 172.399 60.0898 172.682 60.3343 172.918L64.4303 177.014C64.9103 177.494 65.5614 177.763 66.2402 177.763C66.919 177.763 67.57 177.494 68.0501 177.014L75.7301 169.334C75.9746 169.098 76.1696 168.815 76.3038 168.503C76.438 168.19 76.5086 167.855 76.5116 167.515C76.5145 167.175 76.4497 166.838 76.321 166.523C76.1923 166.208 76.0022 165.923 75.7618 165.682C75.5215 165.442 75.2356 165.252 74.921 165.123C74.6064 164.994 74.2693 164.93 73.9294 164.932C73.5895 164.935 73.2536 165.006 72.9412 165.14C72.6289 165.274 72.3464 165.469 72.1103 165.714L72.1052 165.683Z" fill="#231F20"/>
<path d="M204.16 173.732L184.832 193.024L175.473 183.654C174.99 183.188 174.343 182.93 173.672 182.936C173.001 182.942 172.359 183.211 171.884 183.686C171.409 184.16 171.14 184.802 171.134 185.473C171.129 186.145 171.387 186.791 171.853 187.274L183.05 198.467C183.53 198.946 184.181 199.216 184.86 199.216C185.539 199.216 186.19 198.946 186.67 198.467L207.78 177.352C208.246 176.869 208.504 176.222 208.498 175.551C208.493 174.88 208.223 174.238 207.749 173.763C207.274 173.288 206.632 173.019 205.961 173.013C205.29 173.007 204.643 173.265 204.16 173.732Z" fill="#231F20"/>
</svg>
