<svg width="256" height="256" viewBox="0 0 256 256" fill="none" xmlns="http://www.w3.org/2000/svg">
<g clip-path="url(#clip0_22_111)">
<path d="M256 227.556C256 235.1 253.003 242.335 247.669 247.669C242.334 253.003 235.099 256 227.556 256H28.4444C20.9005 256 13.6656 253.003 8.33119 247.669C2.99682 242.335 0 235.1 0 227.556V64.0001C0 56.4562 2.99682 49.2212 8.33119 43.8868C13.6656 38.5525 20.9005 35.5557 28.4444 35.5557H227.556C235.099 35.5557 242.334 38.5525 247.669 43.8868C253.003 49.2212 256 56.4562 256 64.0001V227.556Z" fill="#E0E7EC"/>
<path d="M168.228 135.965H127.076C118.4 135.965 115.179 130.34 115.179 124.871C115.179 119.246 118.229 113.778 127.076 113.778H185.273C193.479 113.778 196.85 121.173 196.85 125.355C196.85 128.569 195.079 131.947 193.152 135.965L153.28 216.996C148.779 225.998 147.008 229.205 139.776 229.205C130.93 229.205 126.428 222.457 126.428 217.792C126.428 215.865 126.912 214.421 128.036 212.167L168.228 135.965ZM77.4329 135.111H73.8773C66.1618 135.111 62.9404 129.913 62.9404 124.444C62.9404 118.812 66.9582 113.778 73.8773 113.778H88.2062C95.1182 113.778 98.9795 118.763 98.9795 125.191V216.676C98.9795 224.711 95.0115 229.213 88.0995 229.213C81.1875 229.213 77.4329 224.711 77.4329 216.676V135.111Z" fill="#66757F"/>
<path d="M241.778 0H218.475C219.698 2.09778 220.444 4.50844 220.444 7.11111C220.444 10.8831 218.946 14.5006 216.279 17.1677C213.612 19.8349 209.994 21.3333 206.222 21.3333C202.45 21.3333 198.833 19.8349 196.166 17.1677C193.498 14.5006 192 10.8831 192 7.11111C192 4.50844 192.747 2.09778 193.97 0H62.0302C63.2533 2.09778 64 4.50844 64 7.11111C64 10.8831 62.5016 14.5006 59.8344 17.1677C57.1672 19.8349 53.5497 21.3333 49.7778 21.3333C46.0058 21.3333 42.3883 19.8349 39.7211 17.1677C37.054 14.5006 35.5556 10.8831 35.5556 7.11111C35.5556 4.50844 36.3022 2.09778 37.5253 0H14.2222C10.4503 0 6.83278 1.49841 4.16559 4.16559C1.49841 6.83278 0 10.4503 0 14.2222L0 92.4444H256V14.2222C256 10.4503 254.502 6.83278 251.834 4.16559C249.167 1.49841 245.55 0 241.778 0Z" fill="#DD2F45"/>
<path d="M93.7387 32.7395C93.7387 29.184 96.0142 27.1929 99.072 27.1929C102.123 27.1929 104.398 29.184 104.398 32.7395V68.416H117.049C120.676 68.416 122.24 71.1182 122.169 73.536C122.094 74.8299 121.516 76.0435 120.56 76.9186C119.604 77.7938 118.344 78.2614 117.049 78.2222H99.2853C95.8009 78.2222 93.7387 75.9538 93.7387 72.3982V32.7395ZM44.6009 32.7395C44.6009 29.184 46.8764 27.1929 49.9342 27.1929C52.992 27.1929 55.2675 29.184 55.2675 32.7395V57.5431C55.2675 64.0853 59.456 69.2693 66.2115 69.2693C72.6755 69.2693 77.0844 63.8009 77.0844 57.5431V32.7395C77.0844 29.184 79.3529 27.1929 82.4107 27.1929C85.4684 27.1929 87.744 29.184 87.744 32.7395V58.112C87.744 70.0515 77.9307 79.0827 66.2115 79.0827C54.3431 79.0827 44.6009 70.1938 44.6009 58.112V32.7395ZM39.04 64.0071C39.04 75.9467 31.4382 79.0755 24.9671 79.0755C20.0675 79.0755 11.8898 77.1555 11.8898 70.9689C11.8898 69.056 13.5253 66.6382 15.872 66.6382C18.7164 66.6382 21.2053 69.2693 24.3982 69.2693C28.3804 69.2693 28.3804 65.5715 28.3804 63.296V32.7395C28.3804 29.184 30.656 27.1929 33.7067 27.1929C36.7715 27.1929 39.04 29.184 39.04 32.7395V64.0071Z" fill="#F5F8FA"/>
<path d="M227.556 71.111C227.556 72.9969 228.305 74.8057 229.638 76.1393C230.972 77.4729 232.781 78.2221 234.667 78.2221C236.553 78.2221 238.361 77.4729 239.695 76.1393C241.029 74.8057 241.778 72.9969 241.778 71.111C241.778 69.225 241.029 67.4162 239.695 66.0826C238.361 64.749 236.553 63.9998 234.667 63.9998C232.781 63.9998 230.972 64.749 229.638 66.0826C228.305 67.4162 227.556 69.225 227.556 71.111ZM227.556 49.7776C227.556 51.6636 228.305 53.4723 229.638 54.8059C230.972 56.1395 232.781 56.8887 234.667 56.8887C236.553 56.8887 238.361 56.1395 239.695 54.8059C241.029 53.4723 241.778 51.6636 241.778 49.7776C241.778 47.8916 241.029 46.0829 239.695 44.7493C238.361 43.4157 236.553 42.6665 234.667 42.6665C232.781 42.6665 230.972 43.4157 229.638 44.7493C228.305 46.0829 227.556 47.8916 227.556 49.7776ZM206.222 71.111C206.222 72.9969 206.971 74.8057 208.305 76.1393C209.639 77.4729 211.447 78.2221 213.333 78.2221C215.219 78.2221 217.028 77.4729 218.362 76.1393C219.695 74.8057 220.444 72.9969 220.444 71.111C220.444 69.225 219.695 67.4162 218.362 66.0826C217.028 64.749 215.219 63.9998 213.333 63.9998C211.447 63.9998 209.639 64.749 208.305 66.0826C206.971 67.4162 206.222 69.225 206.222 71.111ZM206.222 49.7776C206.222 51.6636 206.971 53.4723 208.305 54.8059C209.639 56.1395 211.447 56.8887 213.333 56.8887C215.219 56.8887 217.028 56.1395 218.362 54.8059C219.695 53.4723 220.444 51.6636 220.444 49.7776C220.444 47.8916 219.695 46.0829 218.362 44.7493C217.028 43.4157 215.219 42.6665 213.333 42.6665C211.447 42.6665 209.639 43.4157 208.305 44.7493C206.971 46.0829 206.222 47.8916 206.222 49.7776ZM184.889 71.111C184.889 72.9969 185.638 74.8057 186.972 76.1393C188.305 77.4729 190.114 78.2221 192 78.2221C193.886 78.2221 195.695 77.4729 197.028 76.1393C198.362 74.8057 199.111 72.9969 199.111 71.111C199.111 69.225 198.362 67.4162 197.028 66.0826C195.695 64.749 193.886 63.9998 192 63.9998C190.114 63.9998 188.305 64.749 186.972 66.0826C185.638 67.4162 184.889 69.225 184.889 71.111ZM184.889 49.7776C184.889 51.6636 185.638 53.4723 186.972 54.8059C188.305 56.1395 190.114 56.8887 192 56.8887C193.886 56.8887 195.695 56.1395 197.028 54.8059C198.362 53.4723 199.111 51.6636 199.111 49.7776C199.111 47.8916 198.362 46.0829 197.028 44.7493C195.695 43.4157 193.886 42.6665 192 42.6665C190.114 42.6665 188.305 43.4157 186.972 44.7493C185.638 46.0829 184.889 47.8916 184.889 49.7776ZM163.556 49.7776C163.556 51.6636 164.305 53.4723 165.638 54.8059C166.972 56.1395 168.781 56.8887 170.667 56.8887C172.553 56.8887 174.361 56.1395 175.695 54.8059C177.029 53.4723 177.778 51.6636 177.778 49.7776C177.778 47.8916 177.029 46.0829 175.695 44.7493C174.361 43.4157 172.553 42.6665 170.667 42.6665C168.781 42.6665 166.972 43.4157 165.638 44.7493C164.305 46.0829 163.556 47.8916 163.556 49.7776ZM163.556 71.111C163.556 72.9969 164.305 74.8057 165.638 76.1393C166.972 77.4729 168.781 78.2221 170.667 78.2221C172.553 78.2221 174.361 77.4729 175.695 76.1393C177.029 74.8057 177.778 72.9969 177.778 71.111C177.778 69.225 177.029 67.4162 175.695 66.0826C174.361 64.749 172.553 63.9998 170.667 63.9998C168.781 63.9998 166.972 64.749 165.638 66.0826C164.305 67.4162 163.556 69.225 163.556 71.111Z" fill="#F4ABBA"/>
</g>
<defs>
<clipPath id="clip0_22_111">
<rect width="256" height="256" fill="white"/>
</clipPath>
</defs>
</svg>
