<svg width="256" height="256" viewBox="0 0 256 256" fill="none" xmlns="http://www.w3.org/2000/svg">
<path d="M248 144.022H8C3.58 144.022 0 147.602 0 152.022V232.022C0 236.442 3.58 240.022 8 240.022H248C252.42 240.022 256 236.442 256 232.022V152.022C256 147.606 252.42 144.022 248 144.022Z" fill="#C9D5DD"/>
<path d="M192 236.022H212C214.208 236.022 216 237.814 216 240.022V244.022C216 246.23 214.208 248.022 212 248.022H192C189.792 248.022 188 246.23 188 244.022V240.022C188 237.814 189.792 236.022 192 236.022Z" fill="#35495C"/>
<path d="M44 236.022H64C66.208 236.022 68 237.814 68 240.022V244.022C68 246.23 66.208 248.022 64 248.022H44C41.792 248.022 40 246.23 40 244.022V240.022C40 237.814 41.792 236.022 44 236.022Z" fill="#35495C"/>
<path d="M20 168.022H236C238.208 168.022 240 169.814 240 172.022V212.022C240 214.23 238.208 216.022 236 216.022H20C17.792 216.022 16 214.23 16 212.022V172.022C16 169.814 17.792 168.022 20 168.022Z" fill="#35495C"/>
<path d="M36 200.042C40.4183 200.042 44 196.46 44 192.042C44 187.624 40.4183 184.042 36 184.042C31.5817 184.042 28 187.624 28 192.042C28 196.46 31.5817 200.042 36 200.042Z" fill="#F7B84E"/>
<path d="M60 200.042C64.4183 200.042 68 196.46 68 192.042C68 187.624 64.4183 184.042 60 184.042C55.5817 184.042 52 187.624 52 192.042C52 196.46 55.5817 200.042 60 200.042Z" fill="#DE333F"/>
<path d="M84 200.042C88.4183 200.042 92 196.46 92 192.042C92 187.624 88.4183 184.042 84 184.042C79.5817 184.042 76 187.624 76 192.042C76 196.46 79.5817 200.042 84 200.042Z" fill="#3CB54A"/>
<path d="M196 200.042C200.418 200.042 204 196.46 204 192.042C204 187.624 200.418 184.042 196 184.042C191.582 184.042 188 187.624 188 192.042C188 196.46 191.582 200.042 196 200.042Z" fill="#123247"/>
<path d="M220 200.042C224.418 200.042 228 196.46 228 192.042C228 187.624 224.418 184.042 220 184.042C215.582 184.042 212 187.624 212 192.042C212 196.46 215.582 200.042 220 200.042Z" fill="#123247"/>
<path d="M248 160.022V232.022H16C11.58 232.022 8 235.602 8 240.022H248C252.42 240.022 256 236.442 256 232.022V152.022C251.58 152.022 248 155.606 248 160.022Z" fill="#B2C4D0"/>
<path d="M216 240.042H188V244.042H216V240.042Z" fill="#123247"/>
<path d="M68 240.042H40V244.042H68V240.042Z" fill="#123247"/>
<path d="M136.84 120.022H119.16C118.116 120.014 117.112 120.418 116.36 121.142C113.584 124.086 112.024 127.974 112 132.022V144.022H144V132.022C143.976 127.974 142.416 124.086 139.64 121.142C138.888 120.418 137.884 120.018 136.84 120.022Z" fill="#35495C"/>
<path d="M139.64 121.142C139.168 120.594 138.54 120.202 137.84 120.022C139.268 122.446 140.016 125.21 140 128.022V140.022H116C113.792 140.022 112 141.814 112 144.022H144V132.022C143.976 127.974 142.416 124.09 139.64 121.142Z" fill="#123247"/>
<path d="M136 120.022V48.022C136 43.602 132.42 40.022 128 40.022C123.58 40.022 120 43.602 120 48.022V120.022H136Z" fill="#B2C4D0"/>
<path d="M128 120.022H136V52.022C136 49.814 134.208 48.022 132 48.022C129.792 48.022 128 49.814 128 52.022V120.022Z" fill="#8FAEBF"/>
<path d="M105.84 65.8222C104.776 65.8302 103.756 65.4102 103 64.6622C93.8001 55.7142 93.5961 40.9982 102.544 31.7982C102.696 31.6422 102.848 31.4902 103 31.3422C104.56 29.7902 107.08 29.7902 108.64 31.3422C110.14 32.8942 110.14 35.3502 108.64 36.9022C102.508 42.8622 102.372 52.6622 108.328 58.7902C108.428 58.8942 108.532 58.9982 108.64 59.1022C110.14 60.6542 110.14 63.1102 108.64 64.6622C107.896 65.4022 106.888 65.8182 105.84 65.8222Z" fill="#C9D5DD"/>
<path d="M150.16 65.8222C149.096 65.8302 148.076 65.4102 147.32 64.6622C145.82 63.1102 145.82 60.6542 147.32 59.1022C153.452 53.1422 153.588 43.3422 147.632 37.2142C147.532 37.1102 147.428 37.0062 147.32 36.9022C145.82 35.3502 145.82 32.8942 147.32 31.3422C148.88 29.7902 151.4 29.7902 152.96 31.3422C162.16 40.2902 162.364 55.0062 153.416 64.2062C153.264 64.3622 153.112 64.5142 152.96 64.6622C152.216 65.4022 151.208 65.8182 150.16 65.8222Z" fill="#C9D5DD"/>
<path d="M94.5601 76.9021C93.4961 76.9101 92.4762 76.4901 91.7202 75.7421C76.4002 60.7901 76.1002 36.2501 91.0522 20.9301C91.2722 20.7061 91.4962 20.4821 91.7202 20.2621C93.2802 18.7101 95.8002 18.7101 97.3602 20.2621C98.8602 21.8141 98.8602 24.2701 97.3602 25.8221C85.1002 37.7701 84.8481 57.3981 96.7961 69.6581C96.9801 69.8501 97.1682 70.0341 97.3602 70.2221C98.8602 71.7741 98.8602 74.2301 97.3602 75.7821C96.6082 76.5061 95.6041 76.9101 94.5601 76.9021Z" fill="#C9D5DD"/>
<path d="M161.44 76.9021C160.376 76.9101 159.356 76.4901 158.6 75.7421C157.1 74.1901 157.1 71.7341 158.6 70.1821C170.86 58.2341 171.112 38.6061 159.164 26.3461C158.98 26.1541 158.792 25.9701 158.6 25.7821C157.1 24.2301 157.1 21.7741 158.6 20.2221C160.16 18.6701 162.68 18.6701 164.24 20.2221C179.56 35.1741 179.86 59.7141 164.908 75.0341C164.688 75.2581 164.464 75.4821 164.24 75.7021C163.5 76.4581 162.496 76.8901 161.44 76.9021Z" fill="#C9D5DD"/>
<path d="M83.24 88.022C82.176 88.03 81.156 87.61 80.4 86.862C58.94 65.994 58.456 31.682 79.324 10.218C79.68 9.85403 80.036 9.49403 80.4 9.14203C81.96 7.59003 84.48 7.59003 86.04 9.14203C87.54 10.694 87.54 13.15 86.04 14.702C67.648 32.61 67.256 62.038 85.168 80.43C85.456 80.726 85.748 81.014 86.04 81.302C87.54 82.854 87.54 85.31 86.04 86.862C85.296 87.602 84.288 88.018 83.24 88.022Z" fill="#C9D5DD"/>
<path d="M172.76 88.022C171.696 88.03 170.676 87.61 169.92 86.862C168.42 85.31 168.42 82.854 169.92 81.302C188.312 63.394 188.7 33.966 170.792 15.574C170.504 15.278 170.212 14.99 169.92 14.702C168.42 13.15 168.42 10.694 169.92 9.14203C171.48 7.59003 174 7.59003 175.56 9.14203C197.02 30.01 197.504 64.322 176.636 85.786C176.28 86.15 175.924 86.51 175.56 86.862C174.816 87.602 173.808 88.018 172.76 88.022Z" fill="#C9D5DD"/>
</svg>
