<svg width="256" height="256" viewBox="0 0 256 256" fill="none" xmlns="http://www.w3.org/2000/svg">
<path d="M153.619 47.7805C153.619 58.3654 162.279 67.025 172.863 67.025H236.756C247.34 67.025 256 58.3654 256 47.7805V25.2963C256 14.7113 247.34 6.05176 236.756 6.05176H172.863C162.279 6.05176 153.619 14.7113 153.619 25.2963V47.7805Z" fill="#61B4E4"/>
<path d="M153.619 108.754C153.619 119.339 162.279 127.999 172.863 127.999H236.756C247.34 127.999 256 119.339 256 108.754V86.2694C256 75.6852 247.34 67.0249 236.756 67.0249H172.863C162.279 67.0249 153.619 75.6852 153.619 86.2694V108.754Z" fill="#005CB9"/>
<path d="M153.619 169.729C153.619 180.313 162.279 188.973 172.863 188.973H236.756C247.34 188.973 256 180.313 256 169.729V147.244C256 136.659 247.34 127.999 236.756 127.999H172.863C162.279 127.999 153.619 136.659 153.619 147.244V169.729Z" fill="#FEE050"/>
<path d="M153.619 230.702C153.619 241.287 162.279 249.947 172.863 249.947H236.756C247.34 249.947 256 241.287 256 230.702V208.218C256 197.633 247.34 188.974 236.756 188.974H172.863C162.279 188.974 153.619 197.633 153.619 208.218V230.702Z" fill="#AF8400"/>
<path d="M199.855 22.1114C199.855 11.1986 190.926 2.27002 180.013 2.27002H19.8413C8.9286 2.27002 0 11.1986 0 22.1114V233.888C0 244.801 8.9286 253.73 19.8413 253.73H180.013C190.926 253.73 199.855 244.801 199.855 233.888V22.1114Z" fill="#E8E8E8"/>
<path d="M173.734 176.458H26.1215V188.662H173.734V176.458Z" fill="#7D868C"/>
<path d="M47.1359 151.748H152.72C149.633 137.234 140.716 124.877 128.535 117.245C137.079 109.469 142.443 98.2579 142.443 85.7943C142.443 62.3133 123.408 43.2783 99.9265 43.2783C76.4471 43.2783 57.4105 62.3133 57.4105 85.7943C57.4105 98.2579 62.774 109.469 71.3185 117.245C59.1391 124.877 50.2216 137.233 47.1359 151.748Z" fill="#C3C6C8"/>
<path d="M155.148 200H44.7065V212.204H155.148V200Z" fill="#7D868C"/>
</svg>
