<svg width="256" height="256" viewBox="0 0 256 256" fill="none" xmlns="http://www.w3.org/2000/svg">
<path d="M140 36V64H148V36C148 16.116 131.884 0 112 0C92.116 0 76 16.116 76 36V64C76 72.836 68.836 80 60 80C57.792 80 56 81.792 56 84C56 86.208 57.792 88 60 88C73.256 88 84 77.256 84 64V36C84 20.536 96.536 8 112 8C127.464 8 140 20.536 140 36Z" fill="#DE333F"/>
<path d="M128 64H160C182.092 64 200 81.908 200 104V216C200 238.092 182.092 256 160 256H128C105.908 256 88 238.092 88 216V104C88 81.908 105.908 64 128 64Z" fill="#35495C"/>
<path d="M190.4 78.04C191.456 81.256 191.996 84.616 192 88V216C192 233.672 177.672 248 160 248H112C108.616 247.996 105.256 247.456 102.04 246.4C109.276 252.588 118.48 255.992 128 256H160C182.092 256 200 238.092 200 216V104C199.992 94.48 196.588 85.276 190.4 78.04Z" fill="#123247"/>
<path d="M148 64H140V88H148V64Z" fill="#123247"/>
<path d="M140 132H148V144C148 146.208 146.208 148 144 148C141.792 148 140 146.208 140 144V132Z" fill="#123247"/>
<path d="M140 88H148C150.208 88 152 89.792 152 92V128C152 130.208 150.208 132 148 132H140C137.792 132 136 130.208 136 128V92C136 89.792 137.792 88 140 88Z" fill="#C61C31"/>
<path d="M152 112H136V116H152V112Z" fill="#DE333F"/>
<path d="M148 88H140C137.792 88 136 89.792 136 92H152C152 89.792 150.208 88 148 88Z" fill="#DE333F"/>
<path d="M152 120H136V124H152V120Z" fill="#DE333F"/>
<path d="M152 104H136V108H152V104Z" fill="#DE333F"/>
<path d="M140 132H148C150.208 132 152 130.208 152 128H136C136 130.208 137.792 132 140 132Z" fill="#DE333F"/>
<path d="M152 96H136V100H152V96Z" fill="#DE333F"/>
<path d="M144 224C150.627 224 156 218.627 156 212C156 205.373 150.627 200 144 200C137.373 200 132 205.373 132 212C132 218.627 137.373 224 144 224Z" fill="#123247"/>
</svg>
