<svg width="256" height="256" viewBox="0 0 256 256" fill="none" xmlns="http://www.w3.org/2000/svg">
<g clip-path="url(#clip0_27_247)">
<path d="M189.788 115.724V101.996H154.488V115.724L172.138 131.413L189.788 115.724Z" fill="#E6AF78"/>
<path d="M217.08 122.145L192.812 116.435C192.446 116.349 192.109 116.202 191.793 116.025L172.138 127.49L153.249 115.47C152.76 115.93 152.154 116.273 151.464 116.435L127.196 122.145C123.653 122.978 121.148 126.14 121.148 129.781V149.063L172.138 158.897L223.128 149.063V129.781C223.128 126.141 220.623 122.979 217.08 122.145Z" fill="#B4E1FA"/>
<path d="M154.488 101.996V116.48C176.722 124.491 189.788 104.442 189.788 104.442V101.996H154.488Z" fill="#D29B6E"/>
<path d="M146.643 56.8892L148.352 94.4872C148.512 97.9997 150.234 101.257 153.047 103.367L161.155 109.448C163.192 110.976 165.669 111.802 168.215 111.802H176.06C178.606 111.802 181.083 110.976 183.12 109.448L191.228 103.367C194.041 101.257 195.763 98.0002 195.923 94.4872L197.632 56.8892H146.643Z" fill="#F0C087"/>
<path d="M166.255 64.7341C174.099 64.7341 185.866 62.7726 188.657 56.8896H146.643L148.351 94.4877C148.511 98.0002 150.233 101.257 153.046 103.367L161.154 109.448C163.191 110.976 165.668 111.802 168.214 111.802H172.138C168.216 111.802 160.371 103.957 160.371 94.1516C160.371 89.3561 160.371 76.5016 160.371 70.6176C160.371 68.6561 162.333 64.7341 166.255 64.7341Z" fill="#E6AF78"/>
<path d="M208.731 136.335L221.439 124.919C222.504 126.268 223.128 127.964 223.128 129.781V145.141C223.128 147.307 221.372 149.063 219.206 149.063H205.478V143.629C205.478 140.847 206.66 138.195 208.731 136.335Z" fill="#A0D2F0"/>
<path d="M135.545 136.335L122.837 124.919C121.772 126.268 121.148 127.964 121.148 129.781V145.141C121.148 147.307 122.904 149.063 125.07 149.063H138.798V143.629C138.798 140.847 137.616 138.195 135.545 136.335Z" fill="#A0D2F0"/>
<path d="M177.04 157.89H167.235L168.461 131.413H175.815L177.04 157.89Z" fill="#5B5D6E"/>
<path d="M177.04 127.49H167.235V129.803C167.235 131.775 168.834 133.374 170.806 133.374H173.469C175.442 133.374 177.041 131.775 177.041 129.803L177.04 127.49Z" fill="#515262"/>
<path d="M154.212 111.358L172.138 127.491C172.138 127.491 167.118 130.025 160.923 135.133C159.645 136.187 157.712 135.76 157.026 134.252L148.604 115.724L151.268 111.728C151.931 110.732 153.324 110.558 154.212 111.358Z" fill="#A0D2F0"/>
<path d="M190.064 111.358L172.138 127.491C172.138 127.491 177.158 130.025 183.354 135.133C184.632 136.187 186.565 135.76 187.25 134.252L195.672 115.724L193.008 111.728C192.345 110.732 190.953 110.558 190.064 111.358Z" fill="#A0D2F0"/>
<path d="M184.027 43.8965L185.866 56.889C194.258 58.5675 195.468 71.738 195.642 75.5005C195.674 76.183 195.892 76.8425 196.262 77.4165L199.464 82.3835C199.464 82.3835 198.368 74.171 203.386 68.6555C203.386 68.6555 205.109 36.052 184.027 43.8965Z" fill="#785550"/>
<path d="M201.432 81.545L199.217 90.404C198.955 91.4535 198.012 92.19 196.93 92.19C195.741 92.19 194.738 91.3045 194.59 90.125L193.458 81.064C193.155 78.641 195.044 76.5005 197.486 76.5005H197.493C200.135 76.5005 202.072 78.9825 201.432 81.545Z" fill="#F0C087"/>
<path d="M148.523 40.3831L151.424 42.3651C138.309 52.0486 140.76 68.6571 140.76 68.6571C144.682 72.5791 144.682 82.3851 144.682 82.3851L148.604 78.4631C148.604 78.4631 147.09 67.1331 154.488 62.7736C161.352 58.7291 167.358 60.8121 173.486 60.8121C189.911 60.8121 194.508 54.6221 193.711 47.0841C193.299 43.1836 187.335 35.0586 172.138 35.3176C166.005 35.4206 154.488 37.2776 148.523 40.3831Z" fill="#694B4B"/>
<path d="M147.379 59.0948C147.379 59.0948 145.295 50.8823 151.423 42.3638C138.308 52.0473 140.76 68.6558 140.76 68.6558C144.682 72.5778 144.682 82.3838 144.682 82.3838L148.604 78.4618C148.604 78.4618 147.09 67.1318 154.487 62.7723C161.351 58.7278 167.357 60.8108 173.486 60.8108C176.157 60.8108 178.485 60.6318 180.558 60.3253C167.909 60.7498 160.453 51.1688 147.379 59.0948Z" fill="#5A4146"/>
<path d="M142.845 81.545L145.059 90.404C145.322 91.4535 146.265 92.19 147.347 92.19C148.536 92.19 149.539 91.3045 149.686 90.125L150.819 81.064C151.122 78.641 149.233 76.5005 146.791 76.5005H146.783C144.142 76.5005 142.204 78.9825 142.845 81.545Z" fill="#E6AF78"/>
<path d="M196.737 145.141H184.8C183.222 145.141 181.943 146.42 181.943 147.998V154.483H199.593V147.998C199.594 146.42 198.315 145.141 196.737 145.141Z" fill="#A0D2F0"/>
<path d="M122.607 144.681L111.315 133.389L82.6254 162.079L93.9175 173.371L122.607 144.681Z" fill="#D7DEED"/>
<path d="M101.22 143.488C104.655 147.568 108.432 151.346 112.512 154.78L122.612 144.68L111.32 133.388L101.22 143.488Z" fill="#C7CFE2"/>
<path d="M172.138 0C125.822 0 88.2759 37.5465 88.2759 83.862C88.2759 130.177 125.822 167.724 172.138 167.724C218.453 167.724 256 130.177 256 83.862C256 37.5465 218.453 0 172.138 0ZM172.138 154.483C133.135 154.483 101.517 122.865 101.517 83.8625C101.517 44.8595 133.135 13.242 172.138 13.242C211.141 13.242 242.758 44.8595 242.758 83.8625C242.759 122.865 211.141 154.483 172.138 154.483Z" fill="#D7DEED"/>
<path d="M11.9501 253.415L2.58606 244.053C-0.861438 240.606 -0.862437 235.016 2.58556 231.568L77.0851 157.069C80.5321 153.622 86.1211 153.622 89.5686 157.068L98.9326 166.43C102.38 169.877 102.381 175.467 98.9331 178.915L24.4336 253.415C20.9866 256.862 15.3976 256.862 11.9501 253.415Z" fill="#707487"/>
<path d="M11.4131 240.396L85.9126 165.896C89.3596 162.449 94.9481 162.449 98.3961 165.896L98.9421 166.441C98.9421 166.441 98.9366 166.434 98.9326 166.43L89.5686 157.068C86.1211 153.622 80.5326 153.622 77.0851 157.069L2.58556 231.569C-0.861938 235.016 -0.861938 240.606 2.58606 244.053L11.4066 252.872C7.96656 249.424 7.96756 243.841 11.4131 240.396Z" fill="#5B5D6E"/>
<path d="M93.4935 184.354L98.9325 178.915C102.38 175.468 102.379 169.878 98.932 166.431L89.568 157.069C86.1205 153.622 80.532 153.622 77.0845 157.069L71.6465 162.508L93.4935 184.354Z" fill="#C7CFE2"/>
<g opacity="0.97">
<path d="M80.4735 171.335L85.912 165.896C89.359 162.449 94.9475 162.449 98.3955 165.896L98.9405 166.441C98.937 166.437 98.9355 166.434 98.932 166.43L89.568 157.068C86.1205 153.622 80.532 153.622 77.0845 157.069L71.6465 162.507L80.4735 171.335Z" fill="#AFB9D2"/>
</g>
</g>
<defs>
<clipPath id="clip0_27_247">
<rect width="256" height="256" fill="white"/>
</clipPath>
</defs>
</svg>
