<svg width="256" height="256" viewBox="0 0 256 256" fill="none" xmlns="http://www.w3.org/2000/svg">
<g clip-path="url(#clip0_27_189)">
<path d="M134.644 156.105V114.142H125.786V156.105L82.6099 185.787L87.6274 193.089L130.215 163.808L172.802 193.089L177.82 185.787L134.644 156.105Z" fill="#E4EAF6"/>
<path d="M148.613 83.8193V69.5098H111.816V83.8193L130.215 100.173L148.613 83.8193Z" fill="#E6AF78"/>
<path d="M177.06 90.5127L151.765 84.5612C151.383 84.4717 151.031 84.3187 150.702 84.1337L130.214 96.0852L110.524 83.5557C110.014 84.0357 109.382 84.3922 108.663 84.5612L83.368 90.5127C79.674 91.3817 77.0635 94.6777 77.0635 98.4727V114.483C77.0635 116.741 78.894 118.572 81.152 118.572H179.275C181.533 118.572 183.364 116.741 183.364 114.483V98.4727C183.365 94.6782 180.754 91.3822 177.06 90.5127Z" fill="#707487"/>
<path d="M111.816 69.5098V84.6078C134.993 92.9578 148.613 72.0593 148.613 72.0593V69.5098H111.816Z" fill="#D29B6E"/>
<path d="M103.64 22.4922L105.422 61.6832C105.588 65.3447 107.383 68.7392 110.315 70.9387L118.768 77.2782C120.891 78.8707 123.473 79.7312 126.127 79.7312H134.304C136.957 79.7312 139.54 78.8702 141.663 77.2782L150.115 70.9387C153.047 68.7397 154.842 65.3447 155.009 61.6832L156.79 22.4922H103.64Z" fill="#F0C087"/>
<path d="M124.082 30.6692C132.259 30.6692 144.525 28.6252 147.434 22.4922H103.64L105.421 61.6832C105.588 65.3447 107.383 68.7392 110.315 70.9387L118.767 77.2782C120.89 78.8707 123.473 79.7312 126.126 79.7312H130.215C126.126 79.7312 117.949 71.5542 117.949 61.3327C117.949 56.3337 117.949 42.9342 117.949 36.8017C117.95 34.7577 119.994 30.6692 124.082 30.6692Z" fill="#E6AF78"/>
<path d="M168.357 105.304L181.604 93.4048C182.714 94.8103 183.365 96.5788 183.365 98.4723V114.483C183.365 116.741 181.534 118.571 179.276 118.571H164.967V112.908C164.967 110.007 166.2 107.243 168.357 105.304Z" fill="#5B5D6E"/>
<path d="M92.072 105.304L78.8255 93.4048C77.7155 94.8103 77.0645 96.5788 77.0645 98.4723V114.483C77.0645 116.741 78.895 118.571 81.153 118.571H95.4625V112.908C95.463 110.007 94.23 107.243 92.072 105.304Z" fill="#5B5D6E"/>
<path d="M135.326 118.571H125.104L126.382 100.173H134.048L135.326 118.571Z" fill="#5B5D6E"/>
<path d="M135.326 96.085H125.104V97.266C125.104 100.001 127.321 102.218 130.056 102.218H130.373C133.108 102.218 135.325 100.001 135.325 97.266V96.085H135.326Z" fill="#515262"/>
<path d="M111.53 79.2678L130.215 96.0843C130.215 96.0843 124.982 98.7258 118.524 104.05C117.192 105.149 115.177 104.704 114.463 103.132L105.684 83.8188L108.461 79.6533C109.153 78.6168 110.603 78.4343 111.53 79.2678Z" fill="#5B5D6E"/>
<path d="M148.9 79.2678L130.215 96.0843C130.215 96.0843 135.448 98.7258 141.906 104.05C143.238 105.149 145.253 104.704 145.967 103.132L154.746 83.8188L151.969 79.6533C151.277 78.6168 149.827 78.4343 148.9 79.2678Z" fill="#5B5D6E"/>
<path d="M142.608 8.94916L144.524 22.4927C153.272 24.2422 154.533 37.9712 154.715 41.8927C154.748 42.6042 154.975 43.2917 155.361 43.8902L158.699 49.0677C158.699 49.0677 157.556 40.5072 162.787 34.7582C162.787 34.7582 164.583 0.77216 142.608 8.94916Z" fill="#785550"/>
<path d="M160.751 48.1926L158.442 57.4271C158.169 58.5211 157.185 59.2886 156.058 59.2886C154.818 59.2886 153.773 58.3656 153.619 57.1361L152.438 47.6916C152.123 45.1661 154.092 42.9351 156.637 42.9351H156.646C159.398 42.9346 161.418 45.5216 160.751 48.1926Z" fill="#F0C087"/>
<path d="M105.599 5.28676L108.623 7.35226C94.952 17.4458 97.507 34.7578 97.507 34.7578C101.596 38.8463 101.596 49.0673 101.596 49.0673L105.684 44.9788C105.684 44.9788 104.106 33.1683 111.817 28.6253C118.972 24.4093 125.233 26.5813 131.621 26.5813C148.741 26.5813 153.532 20.1293 152.702 12.2718C152.272 8.20576 146.056 -0.26274 130.215 0.00626003C123.822 0.11476 111.817 2.05026 105.599 5.28676Z" fill="#694B4B"/>
<path d="M104.407 24.792C104.407 24.792 102.235 16.2316 108.623 7.35205C94.952 17.4456 97.507 34.7575 97.507 34.7575C101.596 38.846 101.596 49.0671 101.596 49.0671L105.684 44.9785C105.684 44.9785 104.106 33.168 111.817 28.625C118.972 24.409 125.233 26.5811 131.621 26.5811C134.405 26.5811 136.832 26.3946 138.993 26.0751C125.807 26.5166 118.035 16.5295 104.407 24.792Z" fill="#5A4146"/>
<path d="M99.6796 48.1926L101.988 57.4271C102.262 58.5211 103.245 59.2886 104.373 59.2886C105.612 59.2886 106.658 58.3656 106.812 57.1361L107.992 47.6916C108.308 45.1661 106.339 42.9351 103.793 42.9351H103.785C101.032 42.9346 99.0121 45.5216 99.6796 48.1926Z" fill="#E6AF78"/>
<path d="M154.746 114.483H144.525C142.267 114.483 140.436 116.314 140.436 118.572H158.835C158.834 116.314 157.004 114.483 154.746 114.483Z" fill="#5B5D6E"/>
<path d="M82.1754 221.124V206.814H45.3789V221.124L63.7769 237.478L82.1754 221.124Z" fill="#E6AF78"/>
<path d="M110.623 227.818L85.3275 221.866C84.9455 221.777 84.594 221.624 84.2655 221.439L63.777 233.39L44.0875 220.861C43.5775 221.341 42.9455 221.697 42.2265 221.866L16.931 227.818C13.237 228.687 10.6265 231.983 10.6265 235.778V251.788C10.6265 254.046 12.457 255.877 14.715 255.877H112.838C115.096 255.877 116.927 254.046 116.927 251.788V235.778C116.927 231.983 114.317 228.687 110.623 227.818Z" fill="#EFF2FA"/>
<path d="M45.3789 206.814V221.912C68.5559 230.262 82.1754 209.364 82.1754 209.364V206.814H45.3789Z" fill="#D29B6E"/>
<path d="M37.2021 159.797L38.9837 198.988C39.1502 202.65 40.9451 206.044 43.8771 208.244L52.3296 214.583C54.4526 216.176 57.0351 217.036 59.6886 217.036H67.8657C70.5192 217.036 73.1022 216.175 75.2247 214.583L83.6772 208.244C86.6092 206.045 88.4042 202.65 88.5707 198.988L90.3521 159.797H37.2021Z" fill="#F0C087"/>
<path d="M57.6446 167.974C65.8216 167.974 78.0872 165.93 80.9962 159.797H37.2021L38.9832 198.988C39.1497 202.649 40.9446 206.044 43.8766 208.243L52.3291 214.583C54.4521 216.175 57.0346 217.036 59.6881 217.036H63.7766C59.6881 217.036 51.5112 208.859 51.5112 198.637C51.5112 193.638 51.5112 180.239 51.5112 174.106C51.5117 172.062 53.5561 167.974 57.6446 167.974Z" fill="#E6AF78"/>
<path d="M101.919 242.609L115.166 230.709C116.276 232.115 116.927 233.883 116.927 235.777V251.787C116.927 254.045 115.096 255.876 112.838 255.876H98.5288V250.212C98.5288 247.312 99.7618 244.548 101.919 242.609Z" fill="#E4EAF6"/>
<path d="M25.6345 242.609L12.388 230.709C11.278 232.115 10.627 233.883 10.627 235.777V251.787C10.627 254.045 12.4575 255.876 14.7155 255.876H29.025V250.212C29.0255 247.312 27.7925 244.548 25.6345 242.609Z" fill="#E4EAF6"/>
<path d="M68.888 255.876H58.6665L59.9445 237.478H67.61L68.888 255.876Z" fill="#5B5D6E"/>
<path d="M68.888 233.39H58.6665V234.571C58.6665 237.306 60.8835 239.523 63.6185 239.523H63.9355C66.6705 239.523 68.8875 237.306 68.8875 234.571V233.39H68.888Z" fill="#515262"/>
<path d="M45.0921 216.572L63.7771 233.389C63.7771 233.389 58.5441 236.03 52.0861 241.355C50.7541 242.453 48.7386 242.008 48.0246 240.436L39.2461 221.123L42.0231 216.958C42.7151 215.921 44.1656 215.739 45.0921 216.572Z" fill="#E4EAF6"/>
<path d="M82.4628 216.572L63.7778 233.389C63.7778 233.389 69.0108 236.03 75.4688 241.355C76.8008 242.453 78.8163 242.008 79.5303 240.436L88.3088 221.123L85.5318 216.958C84.8398 215.921 83.3893 215.739 82.4628 216.572Z" fill="#E4EAF6"/>
<path d="M76.1704 146.254L78.0869 159.797C86.8349 161.547 88.0959 175.276 88.2774 179.197C88.3104 179.909 88.5374 180.596 88.9234 181.195L92.2614 186.372C92.2614 186.372 91.1189 177.812 96.3499 172.063C96.3499 172.062 98.1459 138.077 76.1704 146.254Z" fill="#785550"/>
<path d="M94.3126 185.497L92.0041 194.732C91.7306 195.826 90.7471 196.593 89.6196 196.593C88.3801 196.593 87.3346 195.67 87.1806 194.441L86.0001 184.996C85.6846 182.47 87.6536 180.239 90.1991 180.239H90.2076C92.9601 180.239 94.9806 182.827 94.3126 185.497Z" fill="#F0C087"/>
<path d="M39.161 142.591L42.185 144.657C28.5145 154.75 31.0695 172.062 31.0695 172.062C35.158 176.151 35.158 186.372 35.158 186.372L39.2465 182.283C39.2465 182.283 37.6685 170.473 45.3795 165.93C52.5345 161.714 58.795 163.886 65.183 163.886C82.3035 163.886 87.0945 157.434 86.264 149.576C85.8345 145.51 79.618 137.042 63.7775 137.311C57.3845 137.419 45.379 139.355 39.161 142.591Z" fill="#694B4B"/>
<path d="M37.969 162.096C37.969 162.096 35.797 153.536 42.185 144.656C28.5145 154.75 31.0695 172.062 31.0695 172.062C35.158 176.15 35.158 186.371 35.158 186.371L39.2465 182.283C39.2465 182.283 37.6685 170.472 45.3795 165.929C52.5345 161.713 58.795 163.885 65.183 163.885C67.9675 163.885 70.394 163.699 72.555 163.379C59.369 163.821 51.597 153.834 37.969 162.096Z" fill="#5A4146"/>
<path d="M33.2418 185.497L35.5503 194.732C35.8238 195.826 36.8073 196.593 37.9348 196.593C39.1743 196.593 40.2198 195.67 40.3738 194.441L41.5543 184.996C41.8698 182.471 39.9008 180.24 37.3553 180.24H37.3468C34.5943 180.239 32.5738 182.827 33.2418 185.497Z" fill="#E6AF78"/>
<path d="M88.3085 251.787H78.087C75.829 251.787 73.9985 253.618 73.9985 255.876H92.397C92.3965 253.618 90.566 251.787 88.3085 251.787Z" fill="#E4EAF6"/>
<path d="M201.082 138.756C159.843 138.756 164.415 188.906 164.604 225.248C164.611 226.62 165.33 227.858 166.506 228.566C171.076 231.321 183.626 237.762 201.082 237.762C218.539 237.762 231.089 231.321 235.659 228.566C236.834 227.858 237.553 226.62 237.561 225.248C237.748 188.906 242.321 138.756 201.082 138.756Z" fill="#694B4B"/>
<path d="M198.425 138.86C160.071 141.01 164.42 189.715 164.604 225.248C164.611 226.62 165.33 227.858 166.506 228.566C171.076 231.321 183.626 237.762 201.082 237.762L211.504 164.81" fill="#5A4146"/>
<path d="M201.082 138.756C177.633 138.756 176.005 167.09 176.005 167.09C189.52 164.81 197.825 170.509 211.504 164.81L201.082 237.761C218.539 237.761 231.088 231.321 235.658 228.566C236.834 227.857 237.553 226.62 237.56 225.247C237.748 188.906 242.321 138.756 201.082 138.756Z" fill="#694B4B"/>
<path d="M237.56 225.248C237.721 194.02 241.093 152.626 215.88 141.587C215.441 143.872 214.644 150.249 216.714 154.389C221.925 164.811 227.136 164.811 232.346 172.626C237.557 201.286 222.39 231.704 217.352 235.846C226.278 233.723 232.676 230.364 235.658 228.566C236.833 227.857 237.553 226.62 237.56 225.248Z" fill="#785550"/>
<path d="M240.564 233.152L217.316 223.466C215.374 222.657 214.109 220.76 214.109 218.656V212.36H188.055V218.656C188.055 220.76 186.79 222.657 184.849 223.466L161.601 233.152C158.688 234.366 156.791 237.212 156.791 240.367V250.789C156.791 253.667 159.124 256 162.002 256H240.163C243.041 256 245.374 253.667 245.374 250.789V240.367C245.374 237.211 243.477 234.366 240.564 233.152Z" fill="#E6AF78"/>
<path d="M240.564 233.152L218.086 223.786L201.082 231.125L184.079 223.786L161.6 233.152C158.688 234.366 156.79 237.212 156.79 240.367V250.789C156.79 253.667 159.123 256 162.001 256H240.163C243.041 256 245.374 253.667 245.374 250.789V240.367C245.374 237.211 243.477 234.366 240.564 233.152Z" fill="#EFF2FA"/>
<path d="M214.108 212.359H188.054V218.655C188.054 220.759 186.789 222.656 184.848 223.465L181.216 224.978C209.003 232.063 214.108 212.359 214.108 212.359Z" fill="#D29B6E"/>
<path d="M169.489 243.231L159.031 234.912C157.63 236.345 156.79 238.283 156.79 240.367V250.789C156.79 253.667 159.123 256 162.001 256H172.423V249.335C172.423 246.96 171.343 244.714 169.489 243.231Z" fill="#E4EAF6"/>
<path d="M245.374 250.788V240.366C245.374 238.298 244.548 236.373 243.166 234.944L232.675 243.23C230.821 244.713 229.742 246.959 229.742 249.333V255.998H240.164C243.041 255.999 245.374 253.666 245.374 250.788Z" fill="#E4EAF6"/>
<path d="M201.473 250.788H200.691C199.468 250.788 198.477 249.796 198.477 248.573V231.13H203.688V248.573C203.688 249.796 202.696 250.788 201.473 250.788Z" fill="#E4EAF6"/>
<path d="M201.082 231.125L186.17 219.941C185.213 219.223 183.849 219.457 183.186 220.452L180.239 224.872L189.382 237.671C190.077 238.644 191.446 238.834 192.38 238.088L201.082 231.125Z" fill="#E4EAF6"/>
<path d="M201.082 231.125L215.994 219.941C216.952 219.223 218.315 219.457 218.979 220.452L221.925 224.872L212.783 237.671C212.088 238.644 210.718 238.834 209.785 238.088L201.082 231.125Z" fill="#E4EAF6"/>
<path d="M214.109 162.205C201.082 175.232 175.516 164.81 175.516 185.653L177.134 201.006C177.447 204.441 179.437 207.498 182.451 209.173L197.286 217.414C199.646 218.726 202.517 218.726 204.877 217.414L219.712 209.173C222.726 207.498 224.717 204.441 225.029 201.006L226.896 182.772C227.029 181.476 227.057 180.172 227.014 178.871C226.04 172.239 216.714 167.416 214.109 162.205Z" fill="#F0C087"/>
<path d="M175.516 185.653L177.134 201.006C177.447 204.441 179.437 207.498 182.451 209.173L197.286 217.414C198.924 218.324 200.803 218.56 202.591 218.207C202.591 218.207 195.112 215.941 190.66 203.891C189.297 200.2 187.404 180.66 189.032 178.271C192.25 173.551 210.2 173.06 215.504 164.303C215.242 163.978 215 163.653 214.78 163.327C214.762 163.301 214.74 163.274 214.723 163.248C214.492 162.901 214.284 162.554 214.109 162.205C201.082 175.232 175.516 164.81 175.516 185.653Z" fill="#E6AF78"/>
<path d="M220.101 250.788H213.327C210.881 250.788 208.898 252.771 208.898 255.217V255.999H224.53V255.217C224.53 252.772 222.547 250.788 220.101 250.788Z" fill="#E4EAF6"/>
</g>
<defs>
<clipPath id="clip0_27_189">
<rect width="256" height="256" fill="white"/>
</clipPath>
</defs>
</svg>
