<svg width="256" height="256" viewBox="0 0 256 256" fill="none" xmlns="http://www.w3.org/2000/svg">
<path d="M177.778 0H78.2222C74.4503 0 70.8328 1.49841 68.1656 4.16559C65.4984 6.83278 64 10.4503 64 14.2222V92.4445C64 92.4445 64 99.5556 71.1111 106.667L116.828 142.222H139.172L184.889 106.667C192 99.5556 192 92.4445 192 92.4445V14.2222C192 10.4503 190.502 6.83278 187.834 4.16559C185.167 1.49841 181.55 0 177.778 0Z" fill="#55ACEE"/>
<path d="M85.3334 0V117.724L116.828 142.222H139.172L170.667 117.724V0H85.3334Z" fill="#E1E8ED"/>
<path d="M99.5555 0V128.789L116.828 142.222H139.172L156.444 128.789V0H99.5555Z" fill="#DD2E44"/>
<path d="M155.748 149.476C156.197 148.294 156.433 147.042 156.444 145.778C156.444 142.949 155.321 140.236 153.32 138.236C151.32 136.235 148.607 135.111 145.778 135.111H110.222C107.393 135.111 104.68 136.235 102.68 138.236C100.679 140.236 99.5555 142.949 99.5555 145.778C99.5555 147.079 99.8257 148.317 100.252 149.476C91.4167 154.406 84.0574 161.606 78.9344 170.332C73.8115 179.058 71.1108 188.993 71.1111 199.111C71.1111 214.199 77.1047 228.669 87.7735 239.338C98.4422 250.007 112.912 256 128 256C143.088 256 157.558 250.007 168.226 239.338C178.895 228.669 184.889 214.199 184.889 199.111C184.889 177.778 173.127 159.211 155.748 149.476Z" fill="#FFAC33"/>
<path d="M128 241.778C151.564 241.778 170.667 222.675 170.667 199.111C170.667 175.547 151.564 156.444 128 156.444C104.436 156.444 85.3334 175.547 85.3334 199.111C85.3334 222.675 104.436 241.778 128 241.778Z" fill="#FFD983"/>
<path d="M147.42 230.116C146.555 230.116 145.712 229.845 145.01 229.34L128 217.138L110.983 229.34C110.279 229.849 109.432 230.122 108.564 230.121C107.695 230.121 106.849 229.846 106.146 229.336C105.443 228.826 104.919 228.107 104.649 227.282C104.378 226.456 104.375 225.567 104.64 224.74L110.983 204.26L94.1226 192.377C93.4275 191.86 92.912 191.138 92.649 190.313C92.3859 189.487 92.3884 188.6 92.6562 187.776C92.924 186.952 93.4436 186.233 94.1417 185.72C94.8398 185.208 95.6813 184.927 96.5475 184.917L117.433 184.889L124.082 164.914C124.353 164.089 124.878 163.37 125.581 162.861C126.285 162.351 127.131 162.077 128 162.077C128.869 162.077 129.715 162.351 130.419 162.861C131.122 163.37 131.647 164.089 131.918 164.914L138.453 184.889L159.445 184.917C160.316 184.918 161.164 185.193 161.868 185.705C162.573 186.217 163.097 186.939 163.366 187.767C163.635 188.595 163.635 189.487 163.367 190.315C163.098 191.143 162.574 191.865 161.87 192.377L145.01 204.26L151.353 224.74C151.55 225.358 151.598 226.014 151.494 226.655C151.389 227.295 151.135 227.902 150.752 228.426C150.369 228.95 149.867 229.376 149.288 229.67C148.709 229.963 148.069 230.116 147.42 230.116Z" fill="#FFAC33"/>
</svg>
