<svg width="256" height="256" viewBox="0 0 256 256" fill="none" xmlns="http://www.w3.org/2000/svg">
<path d="M242.759 220.69H13.2416C8.36606 220.69 4.41406 216.738 4.41406 211.862V75.0347H251.587V211.862C251.586 216.737 247.634 220.69 242.759 220.69Z" fill="#EBD2AF"/>
<path d="M251.587 75.0347H4.41406V88.2762H251.587V75.0347Z" fill="#E1C3A0"/>
<path d="M251.586 79.4485H4.414C1.9765 79.4485 0 77.472 0 75.0345V44.138C0 39.2625 3.952 35.3105 8.8275 35.3105H247.173C252.048 35.3105 256 39.2625 256 44.138V75.0345C256 77.472 254.023 79.4485 251.586 79.4485Z" fill="#F0DCBE"/>
<g clip-path="url(#clip0_27_277)">
<path d="M159.558 173.054H68.7464C65.4525 173.054 62.7822 170.562 62.7822 167.487C62.7822 164.413 65.4525 161.921 68.7464 161.921H159.558C180.795 161.921 198.072 145.795 198.072 125.974C198.072 106.153 180.795 90.0276 159.558 90.0276H133.318C130.024 90.0276 127.354 87.5354 127.354 84.4611C127.354 81.3868 130.024 78.8945 133.318 78.8945H159.558C187.372 78.8945 210 100.014 210 125.974C210 151.933 187.372 173.054 159.558 173.054Z" fill="#FF9092"/>
<path d="M87.2323 153.324V181.652C87.2323 187.38 80.5737 190.959 75.2679 188.099L48.9823 173.935C43.6676 171.071 43.6763 163.9 48.9823 161.041L75.2679 146.876C80.5824 144.012 87.2323 147.605 87.2323 153.324Z" fill="#FF9092"/>
<path d="M106.772 90.0281H87.2317C83.9379 90.0281 81.2676 87.5358 81.2676 84.4616C81.2676 81.3873 83.9379 78.895 87.2317 78.895H106.772C110.066 78.895 112.736 81.3873 112.736 84.4616C112.736 87.5358 110.066 90.0281 106.772 90.0281Z" fill="#FF5255"/>
<path d="M159.557 78.8955H133.318C130.024 78.8955 127.353 81.3878 127.353 84.4621C127.353 87.5363 130.024 90.0286 133.318 90.0286H159.557C180.794 90.0286 198.071 106.154 198.071 125.975C198.071 145.796 180.794 161.922 159.557 161.922H124.515V173.055H159.557C187.371 173.055 209.999 151.935 209.999 125.975C209.999 100.015 187.371 78.8955 159.557 78.8955Z" fill="#FF5255"/>
</g>
<defs>
<clipPath id="clip0_27_277">
<rect width="165" height="154" fill="white" transform="translate(45 57)"/>
</clipPath>
</defs>
</svg>
