<svg width="256" height="256" viewBox="0 0 256 256" fill="none" xmlns="http://www.w3.org/2000/svg">
<g clip-path="url(#clip0_21_65)">
<path d="M234.667 256H28.4445C56.8889 256 49.7778 192 49.7778 192C49.7778 176.291 62.5138 85.3333 78.2222 85.3333H227.556C227.556 85.3333 256 85.3333 256 113.778V234.667C256 234.667 256 256 234.667 256Z" fill="#99AAB5"/>
<path d="M213.333 234.667C213.333 256 234.667 256 234.667 256H21.3333C21.3333 256 0 256 0 227.556V28.4444C0 20.9005 2.99682 13.6656 8.33119 8.33119C13.6656 2.99682 20.9005 0 28.4444 0L184.889 0C192.433 0 199.668 2.99682 205.002 8.33119C210.337 13.6656 213.333 20.9005 213.333 28.4444V234.667Z" fill="#CCD6DD"/>
<path d="M192 142.222C192 144.108 191.251 145.917 189.917 147.25C188.584 148.584 186.775 149.333 184.889 149.333H128C126.114 149.333 124.305 148.584 122.972 147.25C121.638 145.917 120.889 144.108 120.889 142.222C120.889 140.336 121.638 138.527 122.972 137.194C124.305 135.86 126.114 135.111 128 135.111H184.889C186.775 135.111 188.584 135.86 189.917 137.194C191.251 138.527 192 140.336 192 142.222ZM192 113.778C192 115.664 191.251 117.472 189.917 118.806C188.584 120.14 186.775 120.889 184.889 120.889H128C126.114 120.889 124.305 120.14 122.972 118.806C121.638 117.472 120.889 115.664 120.889 113.778C120.889 111.892 121.638 110.083 122.972 108.749C124.305 107.416 126.114 106.667 128 106.667H184.889C186.775 106.667 188.584 107.416 189.917 108.749C191.251 110.083 192 111.892 192 113.778ZM192 85.3333C192 87.2192 191.251 89.028 189.917 90.3616C188.584 91.6952 186.775 92.4444 184.889 92.4444H128C126.114 92.4444 124.305 91.6952 122.972 90.3616C121.638 89.028 120.889 87.2192 120.889 85.3333C120.889 83.4473 121.638 81.6385 122.972 80.3049C124.305 78.9713 126.114 78.2221 128 78.2221H184.889C186.775 78.2221 188.584 78.9713 189.917 80.3049C191.251 81.6385 192 83.4473 192 85.3333ZM192 170.667C192 172.553 191.251 174.361 189.917 175.695C188.584 177.028 186.775 177.778 184.889 177.778H28.4445C26.5585 177.778 24.7498 177.028 23.4162 175.695C22.0826 174.361 21.3334 172.553 21.3334 170.667C21.3334 168.781 22.0826 166.972 23.4162 165.638C24.7498 164.305 26.5585 163.555 28.4445 163.555H184.889C186.775 163.555 188.584 164.305 189.917 165.638C191.251 166.972 192 168.781 192 170.667ZM192 199.111C192 200.997 191.251 202.806 189.917 204.139C188.584 205.473 186.775 206.222 184.889 206.222H28.4445C26.5585 206.222 24.7498 205.473 23.4162 204.139C22.0826 202.806 21.3334 200.997 21.3334 199.111C21.3334 197.225 22.0826 195.416 23.4162 194.083C24.7498 192.749 26.5585 192 28.4445 192H184.889C186.775 192 188.584 192.749 189.917 194.083C191.251 195.416 192 197.225 192 199.111ZM192 227.555C192 229.441 191.251 231.25 189.917 232.584C188.584 233.917 186.775 234.667 184.889 234.667H28.4445C26.5585 234.667 24.7498 233.917 23.4162 232.584C22.0826 231.25 21.3334 229.441 21.3334 227.555C21.3334 225.669 22.0826 223.861 23.4162 222.527C24.7498 221.194 26.5585 220.444 28.4445 220.444H184.889C186.775 220.444 188.584 221.194 189.917 222.527C191.251 223.861 192 225.669 192 227.555ZM177.778 63.9999C177.778 63.9999 192 63.9999 192 49.7777V35.5555C192 35.5555 192 21.3333 177.778 21.3333H35.5556C35.5556 21.3333 21.3334 21.3333 21.3334 35.5555V49.7777C21.3334 49.7777 21.3334 63.9999 35.5556 63.9999H177.778Z" fill="#99AAB5"/>
<path d="M92.4445 149.333C92.4445 149.333 106.667 149.333 106.667 135.111V92.4444C106.667 92.4444 106.667 78.2222 92.4445 78.2222H35.5556C35.5556 78.2222 21.3334 78.2222 21.3334 92.4444V135.111C21.3334 135.111 21.3334 149.333 35.5556 149.333H92.4445Z" fill="#55ACEE"/>
</g>
<defs>
<clipPath id="clip0_21_65">
<rect width="256" height="256" fill="white"/>
</clipPath>
</defs>
</svg>
