<svg width="256" height="256" viewBox="0 0 256 256" fill="none" xmlns="http://www.w3.org/2000/svg">
<path d="M220.444 14.2227H35.5555C29.8975 14.2227 24.4713 16.4703 20.4706 20.471C16.4698 24.4718 14.2222 29.898 14.2222 35.556V220.445C14.2222 226.103 16.4698 231.529 20.4706 235.53C24.4713 239.531 29.8975 241.778 35.5555 241.778H220.444C226.102 241.778 231.529 239.531 235.529 235.53C239.53 231.529 241.778 226.103 241.778 220.445V35.556C241.778 29.898 239.53 24.4718 235.529 20.471C231.529 16.4703 226.102 14.2227 220.444 14.2227Z" fill="#CCD6DD"/>
<path d="M220.444 7.11133H35.5555C28.0116 7.11133 20.7766 10.1081 15.4423 15.4425C10.1079 20.7769 7.11108 28.0118 7.11108 35.5558V220.445C7.11108 227.989 10.1079 235.224 15.4423 240.558C20.7766 245.892 28.0116 248.889 35.5555 248.889H220.444C227.988 248.889 235.223 245.892 240.558 240.558C245.892 235.224 248.889 227.989 248.889 220.445V35.5558C248.889 28.0118 245.892 20.7769 240.558 15.4425C235.223 10.1081 227.988 7.11133 220.444 7.11133ZM220.444 21.3336C228.288 21.3336 234.667 27.7122 234.667 35.5558V64.0002H192V21.3336H220.444ZM192 135.111H234.667V177.778H192V135.111ZM192 120.889V78.2224H234.667V120.889H192ZM177.778 21.3336V64.0002H135.111V21.3336H177.778ZM135.111 78.2224H177.778V120.889H135.111V78.2224ZM135.111 135.111H177.778V177.778H135.111V135.111ZM120.889 21.3336V64.0002H78.2222V21.3336H120.889ZM78.2222 78.2224H120.889V120.889H78.2222V78.2224ZM78.2222 135.111H120.889V177.778H78.2222V135.111ZM21.3333 35.5558C21.3333 27.7122 27.712 21.3336 35.5555 21.3336H64V64.0002H21.3333V35.5558ZM21.3333 78.2224H64V120.889H21.3333V78.2224ZM21.3333 135.111H64V177.778H21.3333V135.111ZM35.5555 234.667C27.712 234.667 21.3333 228.288 21.3333 220.445V192H64V234.667H35.5555ZM78.2222 234.667V192H120.889V234.667H78.2222ZM135.111 234.667V192H177.778V234.667H135.111ZM220.444 234.667H192V192H234.667V220.445C234.667 228.288 228.288 234.667 220.444 234.667Z" fill="#E1E8ED"/>
<path d="M92.4444 234.667H49.7777V113.778C49.7777 110.006 51.2761 106.388 53.9433 103.721C56.6105 101.054 60.228 99.5557 63.9999 99.5557H78.2222C81.9941 99.5557 85.6116 101.054 88.2788 103.721C90.946 106.388 92.4444 110.006 92.4444 113.778V234.667Z" fill="#5C913B"/>
<path d="M206.222 234.667H163.556V64.0001C163.556 60.2281 165.054 56.6106 167.721 53.9434C170.388 51.2762 174.006 49.7778 177.778 49.7778H192C195.772 49.7778 199.389 51.2762 202.057 53.9434C204.724 56.6106 206.222 60.2281 206.222 64.0001V234.667Z" fill="#3B94D9"/>
<path d="M149.333 234.667H106.667V163.556C106.667 159.784 108.165 156.166 110.832 153.499C113.499 150.832 117.117 149.333 120.889 149.333H135.111C138.883 149.333 142.501 150.832 145.168 153.499C147.835 156.166 149.333 159.784 149.333 163.556V234.667Z" fill="#DD2E44"/>
</svg>
