<svg width="256" height="256" viewBox="0 0 256 256" fill="none" xmlns="http://www.w3.org/2000/svg">
<path d="M206.904 111.996C206.904 79.2511 172.361 52.7058 129.753 52.7058C87.1425 52.7058 52.6028 79.2511 52.6028 111.996C52.6028 141.22 80.1163 165.499 116.324 170.381C118.227 181.959 114.716 194.255 105.787 203.185C124.947 203.185 140.765 188.889 143.167 170.383C179.38 165.505 206.904 141.224 206.904 111.996Z" fill="#FFB14D"/>
<path d="M156.552 95.8843H102.955C100.936 95.8843 99.2986 94.2473 99.2986 92.2278C99.2986 90.2083 100.936 88.5713 102.955 88.5713H156.552C158.571 88.5713 160.208 90.2083 160.208 92.2278C160.208 94.2473 158.571 95.8843 156.552 95.8843Z" fill="#181818"/>
<path d="M156.552 115.652H102.955C100.936 115.652 99.2986 114.015 99.2986 111.996C99.2986 109.976 100.936 108.339 102.955 108.339H156.552C158.571 108.339 160.208 109.976 160.208 111.996C160.208 114.015 158.571 115.652 156.552 115.652Z" fill="#181818"/>
<path d="M156.552 135.413H102.955C100.936 135.413 99.2986 133.776 99.2986 131.756C99.2986 129.737 100.936 128.1 102.955 128.1H156.552C158.571 128.1 160.208 129.737 160.208 131.756C160.208 133.776 158.571 135.413 156.552 135.413Z" fill="#181818"/>
</svg>
