<svg width="256" height="256" viewBox="0 0 256 256" fill="none" xmlns="http://www.w3.org/2000/svg">
<path d="M224 32V224H234.667V160H245.333V96H234.667V32H224Z" fill="#7F8C8D"/>
<path d="M224 32C177.355 74.6667 149.333 74.6667 106.667 85.3333V117.333V128H224V117.333V32Z" fill="#BDC3C7"/>
<path d="M106.667 128V138.667V170.667C149.333 181.333 177.355 181.333 224 224V138.667V128H106.667Z" fill="#95A5A6"/>
<path d="M42.6668 74.667C30.8844 74.667 21.3335 84.267 21.3335 96.0003V160C21.3335 171.734 30.8844 181.334 42.6668 181.334H96.0002C101.891 181.334 106.667 176 106.667 170.667V85.3337C106.667 78.9337 101.891 74.667 96.0002 74.667H42.6668Z" fill="#E74C3C"/>
<path d="M42.6668 181.333C30.8844 181.333 21.3335 171.733 21.3335 160V128H106.667V170.667C106.667 176 101.891 181.333 96.0002 181.333H42.6668Z" fill="#C0392B"/>
<path d="M21.3333 106.667H0V149.334H21.3333V106.667Z" fill="#95A5A6"/>
<path d="M21.3333 128H0V149.333H21.3333V128Z" fill="#7F8C8D"/>
<path d="M96 181.333L128 256H96L64 181.333" fill="#7F8C8D"/>
<path d="M85.3332 181.333L117.333 256H74.6665L42.6665 181.333" fill="#95A5A6"/>
</svg>
