<svg width="256" height="256" viewBox="0 0 256 256" fill="none" xmlns="http://www.w3.org/2000/svg">
<path d="M219.52 206.613L187.627 117.44C185.387 111.573 180.373 107.947 174.613 107.947C168.853 107.947 163.947 111.573 161.493 117.653L129.707 206.613C128.213 210.773 130.347 215.36 134.507 216.853C138.667 218.347 143.253 216.213 144.747 212.053L151.36 193.6H197.76L204.373 212.053C205.547 215.36 208.64 217.387 211.947 217.387C212.8 217.387 213.76 217.28 214.613 216.96C218.773 215.467 220.907 210.88 219.413 206.72L219.52 206.613ZM157.227 177.493L174.72 128.533L192.213 177.493H157.227ZM130.027 83.7333C105.92 121.813 84.1601 144.853 57.7068 160.213C56.4268 160.96 55.0401 161.28 53.7601 161.28C50.9868 161.28 48.3201 159.893 46.8268 157.333C44.5868 153.493 45.8668 148.587 49.7068 146.453C72.1067 133.44 90.4534 114.773 111.04 83.84H43.9468C39.5734 83.84 35.9468 80.2133 35.9468 75.84C35.9468 71.4667 39.5734 67.84 43.9468 67.84H83.9468V46.72C83.9468 42.3467 87.5734 38.72 91.9468 38.72C96.32 38.72 99.9468 42.3467 99.9468 46.72V67.84H139.947C144.32 67.84 147.947 71.4667 147.947 75.84C147.947 80.2133 144.32 83.84 139.947 83.84H129.92L130.027 83.7333ZM130.453 161.28C129.067 161.28 127.68 160.96 126.4 160.213C119.467 156.16 112.747 151.68 106.453 146.987C102.933 144.32 102.187 139.307 104.853 135.787C107.52 132.267 112.533 131.52 116.053 134.187C121.813 138.56 128.107 142.613 134.507 146.347C138.347 148.587 139.627 153.493 137.387 157.333C135.893 159.893 133.227 161.28 130.453 161.28Z" fill="black"/>
</svg>
