<svg width="800" height="800" viewBox="0 0 800 800" fill="none" xmlns="http://www.w3.org/2000/svg">
<path opacity="0.4" d="M559.619 36.9606H240.381C101.714 36.9606 19.0476 119.627 19.0476 258.294V577.531C19.0476 716.198 101.714 798.865 240.381 798.865H559.619C698.286 798.865 780.952 716.198 780.952 577.531V258.294C780.952 119.627 698.286 36.9606 559.619 36.9606Z" fill="#292D32"/>
<path opacity="0.7" d="M640.4 298.679C640.4 314.298 627.829 327.251 611.829 327.251H411.829C396.211 327.251 383.259 314.298 383.259 298.679C383.259 283.06 396.211 270.108 411.829 270.108H611.829C627.829 270.108 640.4 283.06 640.4 298.679Z" fill="#292D32"/>
<path opacity="0.7" d="M322.688 261.725L236.973 347.439C231.259 353.153 224.021 355.82 216.783 355.82C209.545 355.82 201.926 353.153 196.592 347.439L168.021 318.867C156.592 307.82 156.592 289.534 168.021 278.486C179.069 267.439 196.973 267.439 208.402 278.486L216.783 286.867L282.307 221.344C293.354 210.296 311.259 210.296 322.688 221.344C333.735 232.391 333.735 250.677 322.688 261.725Z" fill="#292D32"/>
<path opacity="0.7" d="M640.4 565.345C640.4 580.964 627.829 593.916 611.829 593.916H411.829C396.211 593.916 383.259 580.964 383.259 565.345C383.259 549.726 396.211 536.773 411.829 536.773H611.829C627.829 536.773 640.4 549.726 640.4 565.345Z" fill="#292D32"/>
<path opacity="0.7" d="M322.688 528.392L236.973 614.107C231.259 619.821 224.021 622.488 216.783 622.488C209.545 622.488 201.926 619.821 196.592 614.107L168.021 585.535C156.592 574.488 156.592 556.202 168.021 545.154C179.069 534.107 196.973 534.107 208.402 545.154L216.783 553.535L282.307 488.011C293.354 476.964 311.259 476.964 322.688 488.011C333.735 499.059 333.735 517.345 322.688 528.392Z" fill="#292D32"/>
</svg>
