<svg width="800" height="800" viewBox="0 0 800 800" fill="none" xmlns="http://www.w3.org/2000/svg">
<path opacity="0.4" d="M668.007 227.331L476.007 92.998C423.673 56.3313 343.34 58.3313 293.008 97.3313L126.008 227.665C92.6743 253.665 66.341 306.998 66.341 348.997V578.997C66.341 663.997 135.341 733.33 220.341 733.33H579.673C664.673 733.33 733.673 664.33 733.673 579.33V353.33C733.673 308.331 704.673 252.998 668.007 227.331Z" fill="#292D32"/>
<path opacity="0.7" d="M400 625C386.333 625 375 613.667 375 600V500C375 486.333 386.333 475 400 475C413.667 475 425 486.333 425 500V600C425 613.667 413.667 625 400 625Z" fill="#292D32"/>
</svg>
