<svg width="800" height="800" viewBox="0 0 800 800" fill="none" xmlns="http://www.w3.org/2000/svg">
<path opacity="0.4" d="M633.333 266.667C688.563 266.667 733.333 221.895 733.333 166.667C733.333 111.438 688.563 66.6667 633.333 66.6667C578.103 66.6667 533.333 111.438 533.333 166.667C533.333 221.895 578.103 266.667 633.333 266.667Z" fill="#292D32"/>
<path opacity="0.7" d="M678 424H567.667C536.667 424 509 441.333 495 468.667L468.333 521.333C462 534 449.333 541.667 435.333 541.667H331.667C322 541.667 307.667 539.667 298.667 521L272.333 468.667C258.333 441 230.667 423.667 199.667 423.667H88.6666C76.6666 424 66.6666 434 66.6666 446V549C66.6666 664.667 135.667 733.333 251 733.333H516.333C625 733.333 692 673.667 700 568V446C700 434 690 424 678 424Z" fill="#292D32"/>
<path opacity="0.4" d="M633.333 316.667C550.667 316.667 483.333 249.333 483.333 166.667C483.333 142.667 489.667 120.333 499.667 100H250.667C135.667 100 66.6666 168.667 66.6666 284V549C66.6666 664.667 135.667 733.333 250.667 733.333H515.667C631 733.333 699.667 664.667 699.667 549.333V300.333C679.667 310.333 657.333 316.667 633.333 316.667Z" fill="#292D32"/>
</svg>
