<svg width="800" height="800" viewBox="0 0 800 800" fill="none" xmlns="http://www.w3.org/2000/svg">
<path opacity="0.4" d="M400 66.6667C312.667 66.6667 241.667 137.667 241.667 225C241.667 310.667 308.667 380 396 383C398.667 382.667 401.333 382.667 403.333 383C404 383 404.333 383 405 383C405.333 383 405.333 383 405.667 383C491 380 558 310.667 558.333 225C558.333 137.667 487.333 66.6667 400 66.6667Z" fill="#292D32"/>
<path opacity="0.7" d="M569.363 471.663C476.363 409.663 324.698 409.663 231.031 471.663C188.698 499.997 165.365 538.33 165.365 579.33C165.365 620.33 188.698 658.33 230.698 686.33C277.365 717.663 338.697 733.33 400.03 733.33C461.363 733.33 522.697 717.663 569.363 686.33C611.363 657.997 634.697 619.997 634.697 578.663C634.363 537.663 611.363 499.663 569.363 471.663Z" fill="#292D32"/>
</svg>
