<svg width="741" height="741" viewBox="0 0 741 741" fill="none" xmlns="http://www.w3.org/2000/svg">
<path opacity="0.7" d="M586.625 247C637.782 247 679.25 205.53 679.25 154.375C679.25 103.22 637.782 61.75 586.625 61.75C535.468 61.75 494 103.22 494 154.375C494 205.53 535.468 247 586.625 247Z" fill="#292D32"/>
<path opacity="0.4" d="M586.625 293.312C510.055 293.312 447.688 230.945 447.688 154.375C447.688 126.279 456.024 100.344 470.535 78.7312C439.042 67.925 405.389 61.75 370.5 61.75C200.379 61.75 61.75 200.379 61.75 370.5C61.75 540.621 200.379 679.25 370.5 679.25C540.621 679.25 679.25 540.621 679.25 370.5C679.25 335.611 673.075 301.958 662.269 270.465C640.656 284.976 614.721 293.312 586.625 293.312Z" fill="#292D32"/>
</svg>
