<svg width="256" height="256" viewBox="0 0 256 256" fill="none" xmlns="http://www.w3.org/2000/svg">
<path d="M254.342 95.8582C247.406 102.795 220.695 87.3321 194.681 61.3187C168.668 35.3052 153.205 8.59453 160.142 1.65805C167.078 -5.27844 193.789 10.1842 219.802 36.1976C245.816 62.2111 261.279 88.9222 254.342 95.8582Z" fill="#A31C09"/>
<path d="M0 255.999L56.5211 174.358L81.6417 199.479L0 255.999Z" fill="#D9DBE8"/>
<path d="M194.682 61.3181C168.668 35.3047 153.206 8.59402 160.142 1.65753C134.995 26.8052 140.408 63.5647 166.421 89.5782C192.435 115.592 227.627 122.572 252.77 97.4292L252.375 97.0162C243.285 100.325 218.706 85.342 194.682 61.3181Z" fill="#CE3929"/>
<path d="M172.082 140.439L201.563 110.957C189.191 107.573 177.042 100.197 166.424 89.5797C155.802 78.9574 148.688 66.5458 145.615 53.868L115.57 83.9094L91.0618 108.417C94.1394 121.1 102.421 132.339 113.043 142.957C123.661 153.579 135.211 161.554 147.583 164.938L172.082 140.439Z" fill="#A31C09"/>
<path d="M172.082 140.439L201.563 110.957C189.191 107.573 177.042 100.197 166.424 89.5797C155.802 78.9574 148.688 66.5458 145.615 53.868L115.57 83.9094L91.0618 108.417C94.1394 121.1 102.421 132.339 113.043 142.957C123.661 153.579 135.211 161.554 147.583 164.938L172.082 140.439Z" fill="#A31C09"/>
<path d="M156.61 196.176C157.791 185.368 155.801 173.929 150.659 161.859L147.582 164.94C135.21 161.552 123.66 153.577 113.042 142.959C102.42 132.341 94.1382 121.097 91.0606 108.419L94.2001 105.28L94.0622 105.138C81.9172 99.9334 70.4111 97.9217 59.5403 99.1119C39.3395 101.314 27.3097 122.19 35.5783 140.756C41.8708 154.878 53.4696 171.308 68.9412 186.78C84.4078 202.247 100.843 213.85 114.964 220.138C133.527 228.406 154.403 216.377 156.61 196.176Z" fill="#CE3929"/>
</svg>
