<svg width="256" height="256" viewBox="0 0 256 256" fill="none" xmlns="http://www.w3.org/2000/svg">
<g clip-path="url(#clip0_6_20)">
<path fill-rule="evenodd" clip-rule="evenodd" d="M128 256C102.684 256 77.9366 248.493 56.8871 234.428C35.8376 220.363 19.4315 200.372 9.74349 176.984C0.0554728 153.595 -2.47937 127.858 2.45954 103.028C7.39845 78.1989 19.5893 55.3915 37.4904 37.4904C55.3915 19.5893 78.199 7.39847 103.029 2.45956C127.858 -2.47935 153.595 0.0554006 176.984 9.74342C200.372 19.4314 220.363 35.8375 234.428 56.887C248.493 77.9365 256 102.684 256 128C256 161.948 242.514 194.505 218.51 218.51C194.505 242.514 161.948 256 128 256ZM204.8 128C204.8 132.526 203.002 136.867 199.801 140.068C196.601 143.269 192.26 145.067 187.733 145.067H68.2667C63.7404 145.067 59.3994 143.269 56.1988 140.068C52.9981 136.867 51.2001 132.526 51.2001 128C51.2001 123.474 52.9981 119.133 56.1988 115.932C59.3994 112.731 63.7404 110.933 68.2667 110.933H187.733C192.26 110.933 196.601 112.731 199.801 115.932C203.002 119.133 204.8 123.474 204.8 128Z" fill="#9F4C4C"/>
</g>
<defs>
<clipPath id="clip0_6_20">
<rect width="256" height="256" fill="white"/>
</clipPath>
</defs>
</svg>
