<svg width="256" height="256" viewBox="0 0 256 256" fill="none" xmlns="http://www.w3.org/2000/svg">
<g clip-path="url(#clip0_16_19)">
<path d="M176 176V224H48V32H128V16H48C43.7565 16 39.6869 17.6857 36.6863 20.6863C33.6857 23.6869 32 27.7565 32 32V224C32 228.243 33.6857 232.313 36.6863 235.314C39.6869 238.314 43.7565 240 48 240H176C180.243 240 184.313 238.314 187.314 235.314C190.314 232.313 192 228.243 192 224V176H176Z" fill="black"/>
<path d="M236.32 46.08L209.92 19.68C207.527 17.3347 204.31 16.021 200.96 16.021C197.61 16.021 194.393 17.3347 192 19.68L80 131.68V176H124.24L236.24 64C238.585 61.6073 239.899 58.3904 239.899 55.04C239.899 51.6895 238.585 48.4727 236.24 46.08H236.32ZM117.6 160H96V138.4L171.52 62.8L193.2 84.48L117.6 160ZM204.48 73.2L182.8 51.52L200.96 33.36L222.64 55.04L204.48 73.2Z" fill="black"/>
</g>
<defs>
<clipPath id="clip0_16_19">
<rect width="256" height="256" fill="white"/>
</clipPath>
</defs>
</svg>
