<svg width="256" height="256" viewBox="0 0 256 256" fill="none" xmlns="http://www.w3.org/2000/svg">
<g clip-path="url(#clip0_6_16)">
<path fill-rule="evenodd" clip-rule="evenodd" d="M0 128C0 102.684 7.50706 77.9365 21.5719 56.887C35.6367 35.8375 55.6277 19.4314 79.0167 9.74342C102.406 0.0554006 128.142 -2.47935 152.971 2.45956C177.801 7.39847 200.609 19.5893 218.51 37.4904C236.411 55.3915 248.602 78.1989 253.541 103.028C258.48 127.858 255.945 153.595 246.257 176.984C236.569 200.372 220.163 220.363 199.113 234.428C178.064 248.493 153.316 256 128 256C94.0523 256 61.4948 242.514 37.4901 218.51C13.4854 194.505 0 161.948 0 128ZM128 204.8C123.474 204.8 119.133 203.002 115.932 199.801C112.732 196.601 110.933 192.26 110.933 187.733V119.467C110.933 114.94 112.732 110.599 115.932 107.399C119.133 104.198 123.474 102.4 128 102.4C132.526 102.4 136.867 104.198 140.068 107.399C143.268 110.599 145.067 114.94 145.067 119.467V187.733C145.067 192.26 143.268 196.601 140.068 199.801C136.867 203.002 132.526 204.8 128 204.8ZM128 51.2001C131.375 51.2001 134.675 52.2011 137.482 54.0764C140.288 55.9517 142.476 58.6171 143.768 61.7356C145.059 64.8541 145.397 68.2857 144.739 71.5963C144.08 74.9069 142.455 77.9479 140.068 80.3347C137.681 82.7215 134.64 84.3469 131.33 85.0054C128.019 85.6639 124.587 85.326 121.469 84.0343C118.35 82.7426 115.685 80.5551 113.809 77.7485C111.934 74.9419 110.933 71.6422 110.933 68.2667C110.933 63.7404 112.732 59.3994 115.932 56.1988C119.133 52.9981 123.474 51.2001 128 51.2001Z" fill="#5B75A0"/>
</g>
<defs>
<clipPath id="clip0_6_16">
<rect width="256" height="256" fill="white"/>
</clipPath>
</defs>
</svg>
